<svg width="21" height="19" viewBox="0 0 21 19" fill="none" xmlns="http://www.w3.org/2000/svg">
<path d="M0.884216 11.875C0.884216 11.4432 1.10527 10.7954 1.32632 10.3636C1.76843 9.71589 1.98948 9.06816 2.65264 8.63634C5.30527 6.04543 7.73685 3.67043 10.3895 1.07952C10.6105 0.863614 10.8316 0.647705 11.0526 0.647705C11.4947 0.863614 11.7158 1.29543 11.2737 1.51134L11.0526 1.72725C8.62106 4.31816 5.96843 6.90907 3.53685 9.28407C2.65264 10.1477 2.21053 11.0113 2.21053 12.0909C1.98948 14.0341 3.09474 15.9772 5.08422 16.625C6.85264 17.2727 8.40001 17.0568 9.72632 15.7613C12.6 12.9545 15.4737 10.1477 18.3474 7.34089C19.2316 6.47725 19.4526 5.61361 19.0105 4.53407C18.5684 3.45452 17.9053 2.8068 16.8 2.8068C15.6947 2.59089 15.0316 2.8068 14.3684 3.45452C13.0421 4.74998 11.7158 6.04543 10.6105 7.12498C9.06316 8.63634 7.5158 10.1477 5.96843 11.6591C5.52632 12.0909 5.30527 12.7386 5.74737 13.1704C6.18948 13.8182 6.85264 13.8182 7.29474 13.3863L7.5158 13.1704C10.1684 10.7954 12.6 8.20452 15.2526 5.82952L15.4737 5.61361C15.6947 5.3977 15.9158 5.3977 16.1368 5.61361C16.3579 5.82952 16.3579 6.04543 16.1368 6.26134C16.1368 6.26134 16.1368 6.47725 15.9158 6.47725C13.4842 9.06816 10.8316 11.4432 8.40001 14.0341C7.73685 14.6818 6.85264 14.8977 5.96843 14.6818C4.42106 14.25 3.7579 12.0909 5.08422 11.0113C6.85264 9.28407 8.62106 7.5568 10.3895 5.82952C11.4947 4.74998 12.379 3.88634 13.4842 2.8068C14.1474 2.15907 15.2526 1.72725 16.3579 1.72725C17.2421 1.72725 18.1263 1.94316 18.7895 2.59089C18.7895 2.59089 20.1158 3.45452 20.3368 5.1818C20.3368 5.82952 20.3368 6.47725 20.3368 6.47725C20.1158 7.34089 19.8947 7.98861 19.2316 8.63634C16.3579 11.0113 13.4842 13.8182 10.6105 16.4091C9.28422 17.7045 7.73685 18.3522 5.74737 18.1363C4.86316 17.9204 3.97895 17.4886 3.09474 17.0568C3.09474 17.0568 1.76843 15.9772 1.10527 14.4659C1.10527 13.8182 0.884216 13.3863 0.884216 13.1704C0.884216 12.7386 0.884216 12.3068 0.884216 11.875Z" fill="#C9C9C9"/>
</svg>
