<svg width="21" height="19" viewBox="0 0 21 19" fill="none" xmlns="http://www.w3.org/2000/svg">
<path d="M19.6737 9.50001C19.6737 14.25 15.6948 18.1364 10.8316 18.1364C5.96845 18.1364 1.9895 14.25 1.9895 9.50001C1.9895 4.75001 5.96845 0.863647 10.8316 0.863647C15.6948 0.863647 19.6737 4.5341 19.6737 9.50001ZM10.8316 1.72728C6.41055 1.72728 3.09477 5.18183 3.09477 9.2841C3.09477 13.3864 6.63161 16.8409 10.8316 16.8409C15.0316 16.8409 18.5684 13.3864 18.5684 9.2841C18.5684 5.18183 15.0316 1.72728 10.8316 1.72728Z" fill="#C9C9C9"/>
<path d="M5.96844 9.5C6.41055 9.5 6.6316 9.5 7.07371 9.5C7.07371 11.875 9.28423 13.3864 11.0527 13.3864C13.0421 13.3864 14.8105 11.875 14.8105 9.5C15.2527 9.5 15.4737 9.5 15.9158 9.5C15.9158 11.2273 15.2527 12.5227 13.7053 13.6023C12.1579 14.4659 10.1684 14.6818 8.40002 13.8182C6.85266 12.7386 5.96844 11.4432 5.96844 9.5Z" fill="#C9C9C9"/>
<path d="M7.07367 6.69319C7.07367 6.04547 7.51577 5.61365 8.17893 5.61365C8.84209 5.61365 9.28419 6.04547 9.28419 6.69319C9.28419 7.34092 8.84209 7.77274 8.17893 7.77274C7.51577 7.77274 7.07367 7.34092 7.07367 6.69319Z" fill="#C9C9C9"/>
<path d="M13.7052 7.77274C13.0421 7.77274 12.6 7.34092 12.6 6.69319C12.6 6.04547 13.0421 5.61365 13.7052 5.61365C14.3684 5.61365 14.8105 6.04547 14.8105 6.69319C14.8105 7.34092 14.3684 7.77274 13.7052 7.77274Z" fill="#C9C9C9"/>
</svg>
