<svg width="27" height="28" viewBox="0 0 27 28" fill="none" xmlns="http://www.w3.org/2000/svg">
<path d="M23.801 7.85047C24.0569 7.58879 24.4408 7.3271 24.6967 6.93458C25.8484 5.62617 25.7204 3.79439 24.5688 2.61682C23.4171 1.43925 21.4977 1.43925 20.346 2.48598C20.0901 2.74766 19.7062 3.14019 19.4503 3.40187C19.3223 3.27103 19.1944 3.27103 19.0664 3.27103C16.2512 1.70093 13.0522 1.30841 9.85313 2.2243C2.30337 4.31776 -1.27957 12.8224 2.04744 20.0187C2.17541 20.1495 2.17541 20.4112 2.04744 20.5421C1.66356 22.3738 1.15171 24.0748 0.767822 25.9065C0.767822 26.0374 0.767822 26.1682 0.767822 26.4299C0.895784 26.9533 1.40763 27.215 1.91948 27.0841C3.71095 26.6916 5.37446 26.1682 7.16593 25.7757C7.29389 25.7757 7.54981 25.7757 7.67778 25.7757C10.4929 27.0841 13.3081 27.4766 16.2512 26.6916C23.2891 24.8598 27.256 17.1402 24.6967 10.0748C24.5688 9.28972 24.1849 8.63551 23.801 7.85047ZM15.0996 24.9907C12.6683 25.514 10.365 25.1215 8.18962 23.9439C7.80574 23.6822 7.42185 23.6822 6.91 23.8131C5.63038 24.2056 4.35076 24.4673 3.07114 24.8598C2.94318 24.8598 2.94318 24.8598 2.81522 24.8598C3.07114 23.9439 3.1991 23.1589 3.45503 22.3738C3.58299 21.7196 3.71095 21.1963 3.83891 20.5421C3.96687 20.1495 3.83891 19.8879 3.71095 19.4953C2.81522 17.7944 2.43133 15.9626 2.43133 14C2.68725 9.15888 6.14223 4.84112 10.8768 3.79439C13.3081 3.27103 15.7394 3.53271 18.0427 4.71028C18.0427 4.71028 18.1707 4.71028 18.2986 4.84112C18.1707 4.97196 18.0427 4.97196 17.9147 5.1028C15.8673 7.19626 13.692 9.42056 11.6446 11.514C11.3887 11.7757 11.2607 12.0374 11.1328 12.4299C10.8768 13.6075 10.6209 14.785 10.365 16.0935C10.237 16.8785 10.7489 17.4019 11.5166 17.271C12.7963 17.0093 13.9479 16.7477 15.2275 16.486C15.4835 16.486 15.7394 16.2243 15.8673 16.0935C18.0427 14 20.0901 11.7757 22.2655 9.5514C22.3934 9.42056 22.3934 9.42056 22.5214 9.28972C22.9053 10.0748 23.1612 10.729 23.4171 11.514C25.0806 17.6636 21.2418 23.8131 15.0996 24.9907ZM23.5451 5.62617C23.4171 5.75701 23.2892 5.88785 23.2892 5.88785C22.3934 6.6729 21.7536 7.3271 21.3697 7.85047C19.8342 9.42056 16.2512 13.0841 14.9716 14.3925C14.8437 14.5234 14.7157 14.6542 14.5877 14.6542C13.9479 14.785 13.1801 14.9159 12.5403 15.0467C12.6683 14.2617 12.7963 13.4766 13.0522 12.8224C13.0522 12.6916 13.1801 12.6916 13.1801 12.5607C14.4598 11.2523 18.0427 7.45794 19.7062 5.88785C19.9621 5.62617 20.346 5.23365 20.7299 4.84112C20.9858 4.57944 21.1138 4.4486 21.2418 4.18692C21.3697 4.05608 21.4977 3.92523 21.7536 3.79439C22.1375 3.53271 22.9053 3.40187 23.4171 3.92523C23.929 4.4486 23.801 5.23365 23.5451 5.62617Z" fill="#3A3A3A"/>
</svg>
