<svg width="168" height="146" viewBox="0 0 168 146" fill="none" xmlns="http://www.w3.org/2000/svg">
<path d="M163.859 20.0936C152.095 -2.91019 119.9 -6.43329 102.563 12.2184C99.8803 15.1198 97.8165 18.8501 95.3399 22.166C95.1335 22.166 94.7208 21.9587 94.5144 21.7515C72.4313 13.4619 50.9674 14.9125 30.7418 27.347C23.312 31.9063 17.1205 37.5018 12.3737 44.1335C9.89707 47.8639 4.73748 55.739 2.0545 66.7228C-0.215722 75.8414 0.197045 83.3021 0.609812 87.0325C1.02258 90.97 1.84811 97.1873 4.73748 104.441C6.18217 107.964 7.83324 111.28 9.89708 114.388C14.6439 121.849 15.8822 129.724 13.1992 138.221C12.3737 140.708 14.0247 142.573 16.7077 142.159C22.4865 140.915 28.2652 139.672 34.044 138.635C35.0759 138.428 36.1078 138.635 37.1397 139.05C41.4738 140.708 45.1887 142.159 48.9036 143.402C51.1738 144.231 52.8249 144.438 56.3334 145.06C67.4781 146.925 77.5909 145.474 79.0356 145.267C101.738 141.33 119.074 129.517 129.806 109C133.727 101.539 135.585 93.4569 136.204 85.1673C136.204 83.7166 135.997 82.4731 134.553 81.8514C132.695 81.0225 130.838 82.4731 130.632 84.96C129.806 98.8452 124.44 110.865 114.946 121.02C96.1654 140.708 66.859 146.303 41.8865 134.905C38.1716 133.247 34.8695 132.418 30.9482 133.662C30.7418 133.662 30.3291 133.869 30.1227 133.869C26.8205 134.491 23.312 135.32 20.0099 135.941C20.2163 134.076 20.4226 132.211 20.4226 130.553C20.629 123.714 18.3588 117.497 14.8503 111.694C2.67365 91.1773 2.88003 70.4532 15.8822 50.558C32.3929 25.0674 65.827 16.3632 93.2761 27.7615C94.5144 28.176 94.5144 28.7977 94.308 29.8339C93.0697 36.4656 93.8952 42.8901 96.991 48.9001C104.421 63.1997 116.391 69.6242 132.283 69.6242C135.172 69.6242 136.41 68.588 136.41 66.7228C136.41 64.8576 135.172 63.8214 132.283 64.0287C125.059 64.2359 118.248 62.3708 112.263 58.2259C96.991 47.8639 95.3399 27.347 108.755 14.9125C120.106 4.34325 138.268 3.30704 150.651 12.6329C159.319 19.0574 163.447 27.7615 162.208 38.7453C162.002 40.196 161.795 41.6467 161.176 43.0973C158.906 48.9001 157.049 54.9101 157.255 61.5418C155.191 60.7128 153.334 59.8839 151.27 59.0549C149.412 58.2259 147.761 58.8477 147.142 60.2983C146.523 61.749 147.142 63.1997 149 64.0287C152.302 65.4794 155.398 66.9301 158.7 68.1735C161.176 69.2097 163.24 67.759 162.827 65.0649C162.002 58.6404 163.24 52.4232 165.717 46.4132C168.812 37.2946 168.193 28.5905 163.859 20.0936Z" fill="#3A3A3A" fill-opacity="0.1"/>
<path d="M90.1803 55.5318C90.1803 58.6404 89.3547 60.9201 87.2909 62.3708C84.4015 64.4432 83.7824 66.9301 84.6079 70.4532C85.4335 73.769 84.1952 76.8776 81.5122 78.9501C78.6228 81.0225 75.3207 81.437 72.4313 79.3645C69.3355 77.2921 66.8589 77.2921 63.7632 79.3645C60.8738 81.2297 57.5717 81.0225 54.6823 78.9501C51.7929 76.8776 50.5546 73.9763 51.3802 70.4532C52.4121 66.9301 51.5865 64.4432 48.6972 62.1635C46.0142 59.8839 45.1886 56.7753 46.427 53.2522C47.6653 49.9363 50.1419 47.8639 53.6504 47.6566C56.9525 47.4494 59.0164 46.206 60.2547 42.8901C61.493 39.367 64.3823 37.5018 68.0972 37.5018C71.8121 37.5018 74.4951 39.367 75.7334 42.8901C76.9717 46.4132 79.2419 47.2422 82.5441 47.6566C87.2909 48.2784 90.1803 51.8015 90.1803 55.5318ZM76.1462 75.0125C78.4164 75.0125 79.6547 73.5618 79.2419 71.4894C79.0356 69.417 78.6228 67.5518 78.21 65.4794C78.0036 64.2359 78.4164 63.1997 79.2419 62.1635C80.6866 60.9201 81.9249 59.4694 83.1632 58.2259C84.1952 57.397 84.6079 56.3608 84.1952 55.1173C83.7824 53.8739 82.7505 53.2522 81.5122 53.0449C79.6547 52.8377 77.7973 52.4232 75.9398 52.216C74.4951 52.0087 73.6696 51.387 73.0504 50.1435C72.2249 48.4856 71.3994 46.6204 70.5738 44.9625C69.9547 43.9263 69.1291 43.0973 67.8908 43.0973C66.6525 43.0973 65.827 43.7191 65.2079 44.9625C64.3823 46.8277 63.5568 48.4856 62.5249 50.1435C61.9057 50.9725 60.8738 51.8015 59.8419 52.0087C57.9844 52.6304 55.9206 52.6304 53.8568 53.0449C52.6185 53.2522 51.5865 53.8739 51.3802 55.1173C51.3802 56.1535 51.5865 57.1897 52.2057 58.0187C53.444 59.4694 54.8887 60.9201 56.3334 62.1635C57.3653 63.1997 57.778 64.2359 57.3653 65.4794C56.9525 67.3446 56.7461 69.2097 56.3334 71.0749C56.127 72.3183 56.3334 73.5618 57.3653 73.9763C58.1908 74.3907 59.6355 74.3908 60.461 74.1835C62.3185 73.5618 63.9696 72.5256 65.6206 71.4894C66.8589 70.8677 67.8909 70.8677 69.1292 71.4894C70.5738 72.3183 72.0185 73.1473 73.6696 73.769C74.9079 74.598 75.7334 74.8052 76.1462 75.0125Z" fill="#3A3A3A" fill-opacity="0.1"/>
<path d="M83.3697 92.628C89.5612 92.628 95.5463 92.628 101.738 92.628C103.802 92.628 105.04 93.6642 105.04 95.3221C105.04 96.9801 103.802 98.2235 101.738 98.2235C89.3548 98.2235 77.1781 98.2235 64.7951 98.2235C63.3504 98.2235 62.1121 97.809 61.6994 96.1511C61.2866 94.9076 61.6994 93.8714 62.7313 93.2497C63.3504 92.8352 64.176 92.8352 65.0015 92.8352C71.193 92.628 77.1781 92.628 83.3697 92.628Z" fill="#3A3A3A" fill-opacity="0.1"/>
<path d="M55.3015 113.559C60.2547 113.559 65.2079 113.559 70.3675 113.559C71.6058 113.559 72.8441 113.974 73.0505 115.424C73.2568 116.253 73.0505 117.497 72.4313 118.326C72.0185 118.948 70.9866 119.155 70.1611 119.155C60.2547 119.155 50.1419 119.155 40.2355 119.155C38.378 119.155 37.1397 117.911 37.1397 116.253C37.1397 114.596 38.378 113.559 40.4418 113.559C45.3951 113.559 50.3483 113.559 55.3015 113.559Z" fill="#3A3A3A" fill-opacity="0.1"/>
<path d="M41.2674 92.628C43.5377 92.628 45.8079 92.628 48.0781 92.628C49.9356 92.628 51.1739 93.6642 51.1739 95.3221C51.1739 96.9801 49.9356 98.2235 48.0781 98.2235C43.5377 98.2235 38.7908 98.2235 34.2504 98.2235C32.3929 98.2235 31.361 96.9801 31.361 95.5294C31.361 93.8714 32.5993 92.8352 34.4568 92.8352C36.727 92.628 38.9972 92.628 41.2674 92.628Z" fill="#3A3A3A" fill-opacity="0.1"/>
<path d="M89.9739 113.559C92.0378 113.559 94.1016 113.559 95.9591 113.559C97.8165 113.559 98.8484 114.596 98.8484 116.253C98.8484 117.911 97.8165 119.155 95.9591 119.155C92.0378 119.155 87.9101 119.155 83.7824 119.155C81.925 119.155 80.8931 117.911 80.8931 116.253C80.8931 114.596 82.1314 113.559 83.9888 113.559C86.0527 113.559 88.1165 113.559 89.9739 113.559Z" fill="#3A3A3A" fill-opacity="0.1"/>
</svg>
