<svg width="21" height="21" viewBox="0 0 21 21" fill="none" xmlns="http://www.w3.org/2000/svg">
<path d="M17.5775 9.32218C17.5775 11.3626 17.5775 13.5599 17.5775 15.6003C17.5775 17.0129 16.7927 17.6407 15.5371 17.6407C11.2994 17.6407 7.06162 17.6407 2.98083 17.6407C1.56824 17.6407 0.94043 17.0129 0.94043 15.6003C0.94043 11.3626 0.94043 7.12483 0.94043 2.88708C0.94043 1.63145 1.7252 0.84668 2.98083 0.84668C7.21858 0.84668 11.4563 0.84668 15.6941 0.84668C17.1067 0.84668 17.7345 1.63145 17.7345 2.88708C17.5775 5.08443 17.5775 7.28178 17.5775 9.32218ZM2.0391 9.16522C2.0391 11.0487 2.0391 13.0891 2.0391 14.9725C2.0391 16.0712 2.19606 16.2281 3.29473 16.2281C7.21858 16.2281 11.1424 16.2281 14.9093 16.2281C16.008 16.2281 16.1649 16.0712 16.1649 14.9725C16.1649 11.0487 16.1649 7.12483 16.1649 3.20098C16.1649 2.10231 16.008 1.94536 15.0663 1.94536C11.1424 1.94536 7.21858 1.94536 3.29473 1.94536C2.35301 1.94536 2.19606 2.10231 2.19606 3.20098C2.03911 5.39834 2.0391 7.28178 2.0391 9.16522Z" fill="#3A3A3A"/>
<path d="M20.7165 12.3042C20.7165 14.5016 20.7165 16.542 20.7165 18.7393C20.7165 19.995 19.9318 20.7797 18.6761 20.7797C14.4384 20.7797 10.0437 20.7797 5.80594 20.7797C5.17813 20.7797 4.55031 20.6228 4.23641 19.995C3.9225 19.6811 3.9225 19.2102 4.23641 18.8963C4.55031 18.5824 4.86422 18.5824 5.17813 18.8963C5.49204 19.2102 5.80594 19.2102 6.2768 19.2102C10.2006 19.2102 14.2814 19.2102 18.2053 19.2102C19.147 19.2102 19.304 19.0532 19.304 18.1115C19.304 14.1877 19.304 10.1069 19.304 6.18305C19.304 5.71219 19.304 5.39829 18.9901 5.08438C18.6761 4.77047 18.6761 4.45656 18.9901 4.14266C19.304 3.82875 19.6179 3.82875 20.0887 4.14266C20.5596 4.61352 20.8735 5.08438 20.8735 5.71219C20.7165 7.90954 20.7165 10.1069 20.7165 12.3042Z" fill="#3A3A3A"/>
<path d="M9.10199 11.9902C8.94504 11.9902 8.78809 11.8333 8.78809 11.6763V6.96772C8.78809 6.81076 8.94504 6.65381 9.10199 6.65381C9.25895 6.65381 9.4159 6.81076 9.4159 6.96772V11.6763C9.4159 11.8333 9.25895 11.9902 9.10199 11.9902Z" fill="#3A3A3A"/>
<path d="M11.77 9.32221C11.77 9.47916 11.6131 9.63611 11.4561 9.63611H6.7475C6.59055 9.63611 6.43359 9.47916 6.43359 9.32221C6.43359 9.16525 6.59055 9.0083 6.7475 9.0083H11.4561C11.6131 9.0083 11.77 9.16525 11.77 9.32221Z" fill="#3A3A3A"/>
</svg>
