<svg width="36" height="43" viewBox="0 0 36 43" fill="none" xmlns="http://www.w3.org/2000/svg">
<path d="M2.63291 15.739C-0.926494 21.9276 1.3346 31.3128 5.27329 37.0051C7.24263 39.8513 9.22656 42.4056 11.9545 42.4056C12.0128 42.4056 12.0566 42.4056 12.1149 42.4056C13.3987 42.3618 14.3177 41.9531 15.2221 41.5736C16.2287 41.1504 17.2644 40.6979 18.8982 40.6979C20.4445 40.6979 21.4365 41.1212 22.3993 41.5444C23.3475 41.9531 24.3103 42.3764 25.7545 42.3472C28.8325 42.2888 30.7143 39.5302 32.3773 37.1073C34.1132 34.5676 34.9885 32.1009 35.2802 31.1668L35.2948 31.123C35.3532 30.9625 35.2657 30.7727 35.1052 30.6997C35.1052 30.6997 35.0906 30.6851 35.076 30.6851C34.5363 30.4662 29.7953 28.3644 29.7369 22.6136C29.6931 17.943 33.2963 15.4763 34.0257 15.0384L34.0549 15.0238C34.1278 14.98 34.1862 14.8925 34.2008 14.8049C34.2153 14.7173 34.2008 14.6151 34.1424 14.5422C31.6479 10.8932 27.8405 10.3531 26.3088 10.2802C26.09 10.251 25.8566 10.251 25.6232 10.251C23.8143 10.251 22.0929 10.937 20.7071 11.477C19.7443 11.8565 18.9274 12.1776 18.3439 12.1776C17.702 12.1776 16.8705 11.8419 15.9077 11.4624C14.624 10.9516 13.1507 10.3677 11.6044 10.3677C11.5606 10.3677 11.5314 10.3677 11.5022 10.3677C7.89908 10.4261 4.50014 12.4841 2.63291 15.739Z" fill="black"/>
<path d="M26.3088 0.238281C24.1352 0.325856 21.524 1.66867 19.9631 3.49315C18.6357 5.02571 17.3374 7.59458 17.6875 10.178C17.702 10.3386 17.8479 10.47 18.0084 10.4846C18.1543 10.4992 18.3001 10.4992 18.4606 10.4992C20.5904 10.4992 22.8807 9.31689 24.4562 7.41943C26.1046 5.4198 26.9361 2.83634 26.6881 0.544795C26.6443 0.369645 26.4838 0.238281 26.3088 0.238281Z" fill="black"/>
</svg>
