<svg width="13" height="14" viewBox="0 0 13 14" fill="none" xmlns="http://www.w3.org/2000/svg">
<path d="M7.48158 7.11113L12.5989 1.99384C12.7 1.87575 12.7528 1.72386 12.7468 1.5685C12.7408 1.41314 12.6764 1.26577 12.5665 1.15584C12.4566 1.04591 12.3092 0.981502 12.1538 0.975501C11.9985 0.969501 11.8466 1.02234 11.7285 1.12347L6.61121 6.24076L1.49392 1.1173C1.37769 1.00106 1.22003 0.93576 1.05565 0.93576C0.891267 0.93576 0.733616 1.00106 0.617379 1.1173C0.501142 1.23354 0.435841 1.39119 0.435841 1.55557C0.435841 1.71995 0.501142 1.87761 0.617379 1.99384L5.74084 7.11113L0.617379 12.2284C0.552761 12.2837 0.500279 12.3518 0.463227 12.4284C0.426176 12.505 0.405355 12.5884 0.402071 12.6734C0.398788 12.7585 0.413112 12.8432 0.444146 12.9224C0.475179 13.0017 0.522252 13.0736 0.58241 13.1338C0.642567 13.1939 0.71451 13.241 0.793723 13.272C0.872936 13.303 0.957709 13.3174 1.04272 13.3141C1.12773 13.3108 1.21115 13.29 1.28773 13.2529C1.36431 13.2159 1.43241 13.1634 1.48775 13.0988L6.61121 7.9815L11.7285 13.0988C11.8466 13.1999 11.9985 13.2528 12.1538 13.2467C12.3092 13.2407 12.4566 13.1763 12.5665 13.0664C12.6764 12.9565 12.7408 12.8091 12.7468 12.6538C12.7528 12.4984 12.7 12.3465 12.5989 12.2284L7.48158 7.11113Z" fill="#3A3A3A"/>
</svg>
