<svg width="22" height="23" viewBox="0 0 22 23" fill="none" xmlns="http://www.w3.org/2000/svg">
<path d="M5.06408 18.7973C5.06408 19.896 5.06408 20.8377 5.06408 21.7794C5.06408 21.9364 5.06408 22.0933 5.06408 22.2503C5.06408 22.4072 4.75017 22.5642 4.75017 22.5642C4.59322 22.5642 4.43626 22.4072 4.27931 22.2503C4.27931 22.0933 4.27931 21.9364 4.27931 21.7794C4.27931 20.8377 4.27931 19.739 4.27931 18.6403C4.12236 18.6403 3.9654 18.6403 3.80845 18.6403C2.86673 18.6403 2.08196 18.6403 1.14024 18.6403H0.983283C0.669375 18.6403 0.355469 18.4834 0.355469 18.1695C0.355469 17.8556 0.669375 17.6986 0.983283 17.6986C1.925 17.6986 2.86673 17.6986 3.80845 17.6986C3.9654 17.6986 4.12236 17.6986 4.27931 17.6986C4.27931 17.5417 4.27931 17.3847 4.27931 17.2277C4.27931 13.4609 4.27931 9.53702 4.27931 5.77013C4.27931 4.98536 4.27931 4.98536 5.06408 4.98536C8.83097 4.98536 12.7548 4.98536 16.5217 4.98536C16.6786 4.98536 16.8356 4.98536 16.9926 4.98536C16.9926 4.67146 16.9926 4.2006 16.9926 3.88669C16.9926 3.10192 16.9926 2.31715 16.9926 1.53238C16.9926 1.21848 17.1495 1.06152 17.4634 1.06152C17.7773 1.06152 17.9343 1.21848 17.9343 1.53238C17.9343 2.47411 17.9343 3.41583 17.9343 4.35755C17.9343 4.5145 17.9343 4.67146 17.9343 4.82841C18.719 4.82841 19.5038 4.82841 20.2886 4.82841C20.6025 4.82841 20.9164 4.82841 21.2303 4.82841C21.5442 4.82841 21.7012 4.98536 21.7012 5.29927C21.7012 5.61318 21.5442 5.77013 21.2303 5.77013C20.2886 5.77013 19.3469 5.77013 18.4051 5.77013C18.2482 5.77013 18.0912 5.77013 17.9343 5.77013C17.9343 6.08404 17.9343 6.24099 17.9343 6.5549C17.9343 10.3218 17.9343 14.0887 17.9343 17.8556C17.9343 18.4834 17.7773 18.6403 17.1495 18.6403C13.3826 18.6403 9.45878 18.6403 5.69189 18.6403C5.37798 18.7973 5.22103 18.7973 5.06408 18.7973ZM5.06408 6.08404C5.06408 10.0079 5.06408 13.9317 5.06408 18.0125C8.98792 18.0125 12.9118 18.0125 16.9926 18.0125C16.9926 14.0887 16.9926 10.1648 16.9926 6.08404C12.9118 6.08404 8.98792 6.08404 5.06408 6.08404Z" fill="#3A3A3A" stroke="#3A3A3A" stroke-width="0.5" stroke-miterlimit="10"/>
</svg>
