<svg width="26" height="26" viewBox="0 0 26 26" fill="none" xmlns="http://www.w3.org/2000/svg">
<path d="M7.65256 22.167H18.347C18.8563 22.167 19.1109 22.4216 19.1109 22.9309C19.1109 23.4401 18.8563 23.6948 18.347 23.6948H7.65256C7.1433 23.6948 6.88867 23.4401 6.88867 22.9309C6.88867 22.4216 7.1433 22.167 7.65256 22.167Z" fill="#3A3A3A"/>
<path d="M19.8745 10.7084C19.8745 8.88508 19.1501 7.13639 17.8608 5.84708C16.5715 4.55777 14.8228 3.83344 12.9995 3.83344C11.1761 3.83344 9.42741 4.55777 8.1381 5.84708C6.84879 7.13639 6.12446 8.88508 6.12446 10.7084C6.12446 13.5287 8.38099 17.2046 12.9995 21.6076C17.6179 17.2046 19.8745 13.5287 19.8745 10.7084ZM12.9995 23.6946C7.3971 18.6025 4.59668 14.2727 4.59668 10.7084C4.59668 8.47989 5.48197 6.34261 7.0578 4.76678C8.63362 3.19095 10.7709 2.30566 12.9995 2.30566C15.228 2.30566 17.3653 3.19095 18.9411 4.76678C20.5169 6.34261 21.4022 8.47989 21.4022 10.7084C21.4022 14.2727 18.6018 18.6025 12.9995 23.6946Z" fill="#3A3A3A"/>
<path d="M12.9991 12.9998C13.6069 12.9998 14.1898 12.7583 14.6196 12.3286C15.0494 11.8988 15.2908 11.3159 15.2908 10.7081C15.2908 10.1003 15.0494 9.51743 14.6196 9.08766C14.1898 8.65789 13.6069 8.41645 12.9991 8.41645C12.3913 8.41645 11.8084 8.65789 11.3787 9.08766C10.9489 9.51743 10.7075 10.1003 10.7075 10.7081C10.7075 11.3159 10.9489 11.8988 11.3787 12.3286C11.8084 12.7583 12.3913 12.9998 12.9991 12.9998ZM12.9991 14.5276C11.9862 14.5276 11.0147 14.1252 10.2984 13.4089C9.58209 12.6926 9.17969 11.7211 9.17969 10.7081C9.17969 9.69514 9.58209 8.72365 10.2984 8.00736C11.0147 7.29108 11.9862 6.88867 12.9991 6.88867C14.0121 6.88867 14.9836 7.29108 15.6999 8.00736C16.4162 8.72365 16.8186 9.69514 16.8186 10.7081C16.8186 11.7211 16.4162 12.6926 15.6999 13.4089C14.9836 14.1252 14.0121 14.5276 12.9991 14.5276Z" fill="#3A3A3A"/>
</svg>
