<svg width="22" height="23" viewBox="0 0 22 23" fill="none" xmlns="http://www.w3.org/2000/svg">
<path d="M15.3675 15.6581C17.2509 17.5416 18.9774 19.425 20.8609 21.3084C21.0178 21.4654 21.0178 21.4654 21.1748 21.6224C21.4887 21.9363 21.4887 22.2502 21.1748 22.5641C20.8609 22.878 20.547 22.878 20.2331 22.5641C19.9192 22.2502 19.6052 21.9363 19.2913 21.4654C17.7218 19.7389 16.1523 18.1694 14.5827 16.5998C9.56021 20.0528 4.22378 18.0124 1.86948 14.5594C-0.798732 10.9495 -0.327871 6.08394 3.12511 3.10182C6.42114 0.119705 11.6006 0.119705 14.8966 3.10182C18.0357 5.92699 19.1344 11.4204 15.3675 15.6581ZM1.55557 9.69388C1.55557 13.7747 4.8516 17.0707 8.93239 17.0707C13.0132 17.0707 16.4662 13.7747 16.3092 9.69388C16.3092 5.61308 13.0132 2.31706 8.93239 2.31706C4.8516 2.1601 1.55557 5.61308 1.55557 9.69388Z" fill="#3A3A3A"/>
<path d="M11.6015 8.90918C9.875 8.90918 8.1485 8.90918 6.42201 8.90918C6.26506 8.90918 5.7942 8.90918 5.63725 9.22309C5.48029 9.53699 5.48029 9.8509 5.63725 10.1648C5.7942 10.4787 6.26506 10.4787 6.42201 10.4787C8.1485 10.4787 9.875 10.4787 11.6015 10.4787C11.7584 10.4787 12.2293 10.4787 12.3863 10.1648C12.5432 9.8509 12.5432 9.53699 12.3863 9.22309C12.0723 8.90918 11.7584 8.90918 11.6015 8.90918Z" fill="#3A3A3A"/>
</svg>
