<svg width="33" height="30" viewBox="0 0 33 30" fill="none" xmlns="http://www.w3.org/2000/svg">
<g clip-path="url(#clip0_57_507)">
<path d="M6.20006 16.9C5.80006 16.8 5.40006 16.8 4.90006 16.7C4.90006 16.6 4.90006 16.6 4.90006 16.5C5.00006 15.2 5.30006 14 5.90006 12.9C6.60006 11.5 7.50006 10.2 8.70006 9.19998C9.00006 8.89998 9.10006 8.59998 8.90006 8.39998C8.70006 8.19998 8.40006 8.19998 8.10006 8.49998C7.80006 8.79998 7.40006 9.09998 7.10006 9.39998C5.20006 11.5 4.20006 13.9 3.90006 16.7C3.90006 16.9 3.80006 17.1 3.60006 17.1C3.00006 17.3 2.50006 17.7 2.10006 18.1C1.60006 18.6 1.30006 19.2 1.10006 19.7C1.00006 20.1 0.800057 20.9 0.900057 21.8C1.20006 23.7 2.70006 24.7 2.80006 24.8C3.70006 25.4 4.70006 25.6 5.80006 25.5C7.90006 25.2 9.50006 23.4 9.60006 21.4C9.70006 19.3 8.30006 17.4 6.20006 16.9ZM4.70006 23.9C3.50006 23.7 2.40006 22.6 2.30006 21.3C2.20006 19.9 3.10006 18.8 4.10006 18.3C4.80006 18 5.50006 18.2 5.70006 18.2C6.80006 18.5 7.80006 19.5 7.90006 20.8C8.00006 22.5 6.40006 24.2 4.70006 23.9Z" fill="url(#paint0_linear_57_507)" stroke="url(#paint1_linear_57_507)" stroke-miterlimit="10"/>
<path d="M30.6 18.7C29.6 17.1 27.7 16.5 26 16.9C23.5 17.5 22.1 20.2 22.6 22.3C22.8 23.2 23.3 23.9 24 24.5V24.6C21.5 27.1 18.4 28.2 14.9 27.9C13.4 27.8 12 27.3 10.6 26.5C10.3 26.3 9.99995 26.4 9.79995 26.7C9.69995 27 9.79995 27.2 10.1 27.4C12.5 28.7 15 29.2 17.8 28.8C20.5 28.4 22.8 27.2 24.7 25.3C24.8 25.2 24.9 25.1 25.2 25.2C26.8 25.8 28.2 25.6 29.6 24.6C31.4 23.1 31.7 20.5 30.6 18.7ZM28 23.8C27.7 23.9 27.1 24.1 26.4 24C25.4 23.8 24.4 23 24.2 22C23.8 20.5 24.9 18.8 26.5 18.5C27.9 18.2 29.4 19 29.7999 20.3C30.1999 21.4 29.6 22.5 29.5 22.6C29 23.4 28.2 23.7 28 23.8Z" fill="url(#paint2_linear_57_507)" stroke="url(#paint3_linear_57_507)" stroke-miterlimit="10"/>
<path d="M27.4001 13C26.2001 9.59999 24.0001 7.09999 20.7001 5.59999C20.5001 5.49999 20.4001 5.39999 20.4001 5.19999C20.4001 2.49999 18.0001 0.399989 15.4001 0.899989C13.4001 1.19999 11.9001 2.79999 11.7001 4.79999C11.5001 6.69999 12.6001 8.59999 14.4001 9.29999C16.2001 9.99999 18.3001 9.49999 19.5001 7.89999C19.8001 7.49999 20.0001 6.99999 20.3001 6.59999C20.3001 6.59999 20.4001 6.69999 20.5001 6.69999C23.4001 8.09999 25.4001 10.3 26.5001 13.3C26.5001 13.4 26.6001 13.6 26.6001 13.7C26.7001 13.9 26.9001 14 27.2001 13.9C27.4001 13.8 27.6001 13.6 27.5001 13.3C27.5001 13.2 27.5001 13.1 27.4001 13ZM17.8001 7.49999C17.1001 8.09999 15.9001 8.29999 14.9001 7.89999C13.8001 7.39999 13.0001 6.19999 13.1001 4.89999C13.2001 3.59999 14.3001 2.49999 15.6001 2.29999C16.9001 2.09999 18.2001 2.79999 18.7001 4.09999C18.8001 4.29999 19.2001 5.29999 18.7001 6.39999C18.6001 6.59999 18.4001 7.09999 17.8001 7.49999Z" fill="url(#paint4_linear_57_507)" stroke="url(#paint5_linear_57_507)" stroke-miterlimit="10"/>
</g>
<defs>
<linearGradient id="paint0_linear_57_507" x1="5.23896" y1="25.5563" x2="5.23896" y2="8.24798" gradientUnits="userSpaceOnUse">
<stop stop-color="#009EE9"/>
<stop offset="0.2586" stop-color="#009EE9"/>
<stop offset="1" stop-color="#00C3BA"/>
</linearGradient>
<linearGradient id="paint1_linear_57_507" x1="5.23896" y1="26.0563" x2="5.23896" y2="7.74798" gradientUnits="userSpaceOnUse">
<stop stop-color="#009EE9"/>
<stop offset="0.2586" stop-color="#009EE9"/>
<stop offset="1" stop-color="#00C3BA"/>
</linearGradient>
<linearGradient id="paint2_linear_57_507" x1="20.5084" y1="28.9738" x2="20.5084" y2="16.7991" gradientUnits="userSpaceOnUse">
<stop stop-color="#009EE9"/>
<stop offset="0.2586" stop-color="#009EE9"/>
<stop offset="1" stop-color="#00C3BA"/>
</linearGradient>
<linearGradient id="paint3_linear_57_507" x1="20.5084" y1="29.4738" x2="20.5084" y2="16.2991" gradientUnits="userSpaceOnUse">
<stop stop-color="#009EE9"/>
<stop offset="0.2586" stop-color="#009EE9"/>
<stop offset="1" stop-color="#00C3BA"/>
</linearGradient>
<linearGradient id="paint4_linear_57_507" x1="19.6017" y1="13.886" x2="19.6017" y2="0.826289" gradientUnits="userSpaceOnUse">
<stop stop-color="#009EE9"/>
<stop offset="0.2586" stop-color="#009EE9"/>
<stop offset="1" stop-color="#00C3BA"/>
</linearGradient>
<linearGradient id="paint5_linear_57_507" x1="19.6017" y1="14.386" x2="19.6017" y2="0.326289" gradientUnits="userSpaceOnUse">
<stop stop-color="#009EE9"/>
<stop offset="0.2586" stop-color="#009EE9"/>
<stop offset="1" stop-color="#00C3BA"/>
</linearGradient>
<clipPath id="clip0_57_507">
<rect width="32.8" height="29.8" fill="white"/>
</clipPath>
</defs>
</svg>
