<svg width="32" height="30" viewBox="0 0 32 30" fill="none" xmlns="http://www.w3.org/2000/svg">
<path d="M6.32725 17.074C5.92725 16.974 5.52725 16.974 5.02725 16.874C5.02725 16.774 5.02725 16.774 5.02725 16.674C5.12725 15.374 5.42725 14.174 6.02725 13.074C6.72725 11.674 7.62725 10.374 8.82725 9.37396C9.12725 9.07396 9.22725 8.77396 9.02725 8.57396C8.82725 8.37396 8.52726 8.37396 8.22725 8.67396C7.92725 8.97396 7.52725 9.27396 7.22725 9.57396C5.32725 11.674 4.32725 14.074 4.02725 16.874C4.02725 17.074 3.92725 17.274 3.72725 17.274C3.12725 17.474 2.62725 17.874 2.22725 18.274C1.72725 18.774 1.42725 19.374 1.22725 19.874C1.12725 20.274 0.927254 21.074 1.02725 21.974C1.32725 23.874 2.82725 24.874 2.92725 24.974C3.82725 25.574 4.82725 25.774 5.92725 25.674C8.02725 25.374 9.62725 23.574 9.72725 21.574C9.82726 19.474 8.42725 17.574 6.32725 17.074ZM4.82725 24.074C3.62725 23.874 2.52725 22.774 2.42725 21.474C2.32725 20.074 3.22725 18.974 4.22725 18.474C4.92725 18.174 5.62725 18.374 5.82725 18.374C6.92725 18.674 7.92725 19.674 8.02725 20.974C8.12725 22.674 6.52725 24.374 4.82725 24.074Z" fill="#3A3A3A" stroke="#3A3A3A" stroke-miterlimit="10"/>
<path d="M30.7273 18.8741C29.7273 17.2741 27.8273 16.6741 26.1273 17.0741C23.6273 17.6741 22.2273 20.3741 22.7273 22.4741C22.9273 23.3741 23.4273 24.0741 24.1273 24.6741V24.7741C21.6273 27.2741 18.5273 28.3741 15.0273 28.0741C13.5273 27.9741 12.1273 27.4741 10.7273 26.6741C10.4273 26.4741 10.1273 26.5741 9.92727 26.8741C9.82727 27.1741 9.92727 27.3741 10.2273 27.5741C12.6273 28.8741 15.1273 29.3741 17.9273 28.9741C20.6273 28.5741 22.9273 27.3741 24.8273 25.4741C24.9273 25.3741 25.0273 25.2741 25.3273 25.3741C26.9273 25.9741 28.3273 25.7741 29.7273 24.7741C31.5273 23.2741 31.8273 20.6741 30.7273 18.8741ZM28.1273 23.9741C27.8273 24.0741 27.2273 24.2741 26.5273 24.1741C25.5273 23.9741 24.5273 23.1741 24.3273 22.1741C23.9273 20.6741 25.0273 18.9741 26.6273 18.6741C28.0273 18.3741 29.5273 19.1741 29.9273 20.4741C30.3273 21.5741 29.7273 22.6741 29.6273 22.7741C29.1273 23.5741 28.3273 23.8741 28.1273 23.9741Z" fill="#3A3A3A" stroke="#3A3A3A" stroke-miterlimit="10"/>
<path d="M27.5273 13.174C26.3273 9.774 24.1273 7.274 20.8273 5.774C20.6273 5.674 20.5273 5.574 20.5273 5.374C20.5273 2.674 18.1273 0.574 15.5273 1.074C13.5273 1.374 12.0273 2.974 11.8273 4.974C11.6273 6.874 12.7273 8.774 14.5273 9.474C16.3273 10.174 18.4273 9.674 19.6273 8.074C19.9273 7.674 20.1273 7.174 20.4273 6.774C20.4273 6.774 20.5273 6.874 20.6273 6.874C23.5273 8.274 25.5273 10.474 26.6273 13.474C26.6273 13.574 26.7273 13.774 26.7273 13.874C26.8273 14.074 27.0273 14.174 27.3273 14.074C27.5273 13.974 27.7273 13.774 27.6273 13.474C27.6273 13.374 27.6273 13.274 27.5273 13.174ZM17.9273 7.674C17.2273 8.274 16.0273 8.474 15.0273 8.074C13.9273 7.574 13.1273 6.374 13.2273 5.074C13.3273 3.774 14.4273 2.674 15.7273 2.474C17.0273 2.274 18.3273 2.974 18.8273 4.274C18.9273 4.474 19.3273 5.474 18.8273 6.574C18.7273 6.774 18.5273 7.274 17.9273 7.674Z" fill="#3A3A3A" stroke="#3A3A3A" stroke-miterlimit="10"/>
</svg>
