<svg width="30" height="30" viewBox="0 0 30 30" fill="none" xmlns="http://www.w3.org/2000/svg">
<g clip-path="url(#clip0_57_475)">
<path d="M28.8999 14.4C28.6999 14.9 28.2999 15.2 27.6999 15.2C27.3999 15.2 27.1999 15.1 26.9999 14.9C26.8999 14.8 26.8999 14.7 26.7999 14.7C26.7999 14.8 26.7999 14.9 26.7999 15C26.7999 17.5 26.7999 18.1 26.7999 19.2C26.7999 19.7 26.3999 20.2 25.8999 20.3C25.3999 20.4 24.7999 20.2 24.5999 19.7C24.4999 19.5 24.4999 19.3 24.4999 19.1C24.4999 17 24.4999 14.9 24.4999 12.7C24.4999 12.5 24.3999 12.3 24.2999 12.1C21.3999 9.2 18.5999 6.4 15.7999 3.5C15.2999 3.1 14.9999 3 14.4999 3.1C14.2999 3.2 14.0999 3.3 13.8999 3.5C11.4999 5.9 8.99992 8.4 6.59992 10.8C6.19992 11.2 5.69992 11.7 5.19992 12.1C5.09992 12.2 4.99992 12.3 4.99992 12.5C4.99992 16.5 4.99992 20.5 4.99992 24.4C4.99992 25.8 5.89992 26.7 7.29992 26.7C8.29992 26.7 9.29992 26.7 10.1999 26.7C10.3999 26.7 10.4999 26.6 10.4999 26.4C10.4999 24.4 10.4999 22.4 10.4999 20.4C10.4999 18.4 11.9999 16.5 14.2999 16.3C16.7999 16.1 18.5999 17.9 18.7999 19.9C18.7999 20.1 18.7999 20.3 18.7999 20.5C18.7999 22.5 18.7999 24.4 18.7999 26.4C18.7999 26.7 18.8999 26.7 19.0999 26.7C19.9999 26.7 20.9999 26.7 21.8999 26.7C22.9999 26.7 23.8999 26 24.0999 25.1C24.1999 24.9 24.1999 24.7 24.1999 24.5C24.1999 23.9 24.6999 23.4 25.3999 23.5C25.9999 23.5 26.4999 24 26.4999 24.6C26.4999 27 24.5999 29 22.0999 29C20.5999 29 19.1999 29 17.6999 29C16.9999 29 16.4999 28.5 16.4999 27.8C16.4999 25.4 16.4999 23.1 16.4999 20.7C16.4999 20.2 16.3999 19.7 16.0999 19.3C15.5999 18.7 14.7999 18.4 13.9999 18.7C13.1999 19 12.6999 19.7 12.6999 20.6C12.6999 23 12.6999 25.4 12.6999 27.8C12.6999 28.2 12.5999 28.4 12.2999 28.7C12.0999 28.9 11.8999 29 11.5999 29C9.99992 29 8.29992 29 6.69992 29C4.79992 29 2.99992 27.3 2.69992 25.4C2.59992 25.1 2.59992 24.8 2.59992 24.5C2.59992 21.3 2.59992 18.1 2.59992 14.9C2.59992 14.8 2.59992 14.7 2.59992 14.6C2.49992 14.7 2.49992 14.7 2.39992 14.8C1.89992 15.3 1.19992 15.3 0.799917 14.8C0.299917 14.3 0.399917 13.7 0.899917 13.2C2.49992 11.5 4.19992 9.9 5.89992 8.3C7.99992 6.2 10.0999 4.1 12.1999 2C12.1999 2 12.1999 2 12.2999 1.9C12.4999 1.7 12.8999 1.3 13.3999 1.1C13.5999 0.999999 13.7999 0.899999 14.1999 0.799999C14.6999 0.699999 15.0999 0.799999 15.2999 0.799999C16.0999 0.999999 16.7999 1.4 17.3999 2.1C17.7999 2.6 18.2999 3 18.6999 3.5C21.8999 6.7 25.0999 9.9 28.2999 13.2C28.4999 13.4 28.5999 13.6 28.7999 13.8C28.8999 13.9 28.8999 14.1 28.8999 14.4Z" fill="url(#paint0_linear_57_475)"/>
</g>
<defs>
<linearGradient id="paint0_linear_57_475" x1="14.6855" y1="29.0461" x2="14.6855" y2="0.742898" gradientUnits="userSpaceOnUse">
<stop stop-color="#009EE9"/>
<stop offset="0.2586" stop-color="#009EE9"/>
<stop offset="1" stop-color="#00C3BA"/>
</linearGradient>
<clipPath id="clip0_57_475">
<rect width="29.5" height="29.8" fill="white"/>
</clipPath>
</defs>
</svg>
