<svg width="29" height="29" viewBox="0 0 29 29" fill="none" xmlns="http://www.w3.org/2000/svg">
<path d="M28.4287 13.6444C28.2287 14.1444 27.8287 14.4444 27.2287 14.4444C26.9287 14.4444 26.7287 14.3444 26.5287 14.1444C26.4287 14.0444 26.4287 13.9444 26.3287 13.9444C26.3287 14.0444 26.3287 14.1444 26.3287 14.2444C26.3287 16.7444 26.3287 17.3444 26.3287 18.4444C26.3287 18.9444 25.9287 19.4444 25.4287 19.5444C24.9287 19.6444 24.3287 19.4444 24.1287 18.9444C24.0287 18.7444 24.0287 18.5444 24.0287 18.3444C24.0287 16.2444 24.0287 14.1444 24.0287 11.9444C24.0287 11.7444 23.9287 11.5444 23.8287 11.3444C20.9287 8.44444 18.1287 5.64444 15.3287 2.74444C14.8287 2.34444 14.5287 2.24444 14.0287 2.34444C13.8287 2.44444 13.6287 2.54444 13.4287 2.74444C11.0287 5.14444 8.52872 7.64444 6.12873 10.0444C5.72872 10.4444 5.22872 10.9444 4.72872 11.3444C4.62873 11.4444 4.52873 11.5444 4.52873 11.7444C4.52873 15.7444 4.52873 19.7444 4.52873 23.6444C4.52873 25.0444 5.42873 25.9444 6.82873 25.9444C7.82873 25.9444 8.82873 25.9444 9.72873 25.9444C9.92873 25.9444 10.0287 25.8444 10.0287 25.6444C10.0287 23.6444 10.0287 21.6444 10.0287 19.6444C10.0287 17.6444 11.5287 15.7444 13.8287 15.5444C16.3287 15.3444 18.1287 17.1444 18.3287 19.1444C18.3287 19.3444 18.3287 19.5444 18.3287 19.7444C18.3287 21.7444 18.3287 23.6444 18.3287 25.6444C18.3287 25.9444 18.4287 25.9444 18.6287 25.9444C19.5287 25.9444 20.5287 25.9444 21.4287 25.9444C22.5287 25.9444 23.4287 25.2444 23.6287 24.3444C23.7287 24.1444 23.7287 23.9444 23.7287 23.7444C23.7287 23.1444 24.2287 22.6444 24.9287 22.7444C25.5287 22.7444 26.0287 23.2444 26.0287 23.8444C26.0287 26.2444 24.1287 28.2444 21.6287 28.2444C20.1287 28.2444 18.7287 28.2444 17.2287 28.2444C16.5287 28.2444 16.0287 27.7444 16.0287 27.0444C16.0287 24.6444 16.0287 22.3444 16.0287 19.9444C16.0287 19.4444 15.9287 18.9444 15.6287 18.5444C15.1287 17.9444 14.3287 17.6444 13.5287 17.9444C12.7287 18.2444 12.2287 18.9444 12.2287 19.8444C12.2287 22.2444 12.2287 24.6444 12.2287 27.0444C12.2287 27.4444 12.1287 27.6444 11.8287 27.9444C11.6287 28.1444 11.4287 28.2444 11.1287 28.2444C9.52873 28.2444 7.82872 28.2444 6.22872 28.2444C4.32872 28.2444 2.52873 26.5444 2.22873 24.6444C2.12873 24.3444 2.12873 24.0444 2.12873 23.7444C2.12873 20.5444 2.12873 17.3444 2.12873 14.1444C2.12873 14.0444 2.12873 13.9444 2.12873 13.8444C2.02873 13.9444 2.02873 13.9444 1.92873 14.0444C1.42873 14.5444 0.728725 14.5444 0.328725 14.0444C-0.171275 13.5444 -0.0712746 12.9444 0.428725 12.4444C2.02873 10.7444 3.72873 9.14444 5.42873 7.54444C7.52873 5.44444 9.62873 3.34444 11.7287 1.24444C11.7287 1.24444 11.7287 1.24444 11.8287 1.14444C12.0287 0.944444 12.4287 0.544444 12.9287 0.344444C13.1287 0.244444 13.3287 0.144444 13.7287 0.0444444C14.2287 -0.0555556 14.6287 0.0444444 14.8287 0.0444444C15.6287 0.244444 16.3287 0.644444 16.9287 1.34444C17.3287 1.84444 17.8287 2.24444 18.2287 2.74444C21.4287 5.94444 24.6287 9.14444 27.8287 12.4444C28.0287 12.6444 28.1287 12.8444 28.3287 13.0444C28.4287 13.1444 28.4287 13.3444 28.4287 13.6444Z" fill="#3A3A3A"/>
</svg>
