<svg width="32" height="32" viewBox="0 0 32 32" fill="none" xmlns="http://www.w3.org/2000/svg">
<path d="M20.0447 2.575C23.9447 3.775 26.2447 6.175 26.7447 6.775C26.9447 6.975 29.4447 9.875 30.0447 13.675C30.3447 15.775 30.1447 17.975 30.0447 18.275C30.0447 18.675 29.9447 19.075 29.9447 19.275C29.6447 20.475 29.2447 21.575 28.6447 22.675C28.4447 22.975 28.4447 23.275 28.5447 23.575C29.0447 25.175 29.5447 26.775 30.0447 28.275C30.0447 28.375 30.1447 28.575 30.1447 28.675C30.1447 28.775 30.2447 29.075 30.1447 29.375C30.0447 29.775 29.7447 29.975 29.4447 30.075C29.0447 30.175 28.6447 30.075 28.4447 29.975C26.7447 29.475 25.1447 28.875 23.4447 28.375C23.1447 28.275 22.9447 28.275 22.7447 28.475C20.4447 29.775 17.8447 30.275 15.2447 30.175C12.9447 29.975 10.9447 29.475 9.14466 28.475C8.64466 28.175 6.54466 26.975 4.74466 24.375C4.04466 23.375 1.64466 19.675 2.04466 14.875C2.14466 13.575 2.44466 12.575 2.64466 11.975C3.54466 9.275 4.94466 7.075 6.74466 5.475C6.94466 5.375 7.24466 5.075 7.64466 4.775C10.3447 2.775 12.9447 2.275 13.6447 2.175C14.4447 2.075 16.9447 1.675 20.0447 2.575ZM6.74466 7.675C4.84466 9.775 3.74466 12.175 3.54466 14.975C3.24466 18.175 4.04466 21.075 5.94466 23.675C7.84466 26.275 10.4447 27.975 13.6447 28.675C16.7447 29.275 19.6447 28.875 22.3447 27.275C22.4447 27.175 22.6447 27.075 22.7447 27.075C23.1447 26.775 23.5447 26.775 24.0447 26.975C25.3447 27.375 26.5447 27.775 27.8447 28.175C27.9447 28.175 28.0447 28.275 28.1447 28.175C28.2447 28.075 28.1447 27.975 28.1447 27.875C27.7447 26.575 27.3447 25.375 26.9447 24.075C26.7447 23.575 26.8447 23.175 27.0447 22.775C27.9447 21.275 28.5447 19.675 28.7447 17.975C29.1447 14.775 28.5447 11.775 26.6447 9.075C25.0447 6.675 22.8447 5.075 20.0447 4.175C18.8447 3.775 17.4447 3.575 16.3447 3.575C12.3447 3.475 9.24466 4.875 6.74466 7.675Z" fill="#3A3A3A" stroke="#3A3A3A" stroke-miterlimit="10"/>
<path d="M11.1447 19.6749H20.7447C21.1447 19.6749 21.4447 19.3749 21.4447 18.9749V18.1749C21.4447 17.7749 21.1447 17.4749 20.7447 17.4749H11.1447C10.7447 17.4749 10.4447 17.7749 10.4447 18.1749V18.9749C10.4447 19.3749 10.7447 19.6749 11.1447 19.6749Z" fill="#3A3A3A"/>
<path d="M11.1447 14.775H20.7447C21.1447 14.775 21.4447 14.475 21.4447 14.075V13.275C21.4447 12.875 21.1447 12.575 20.7447 12.575H11.1447C10.7447 12.575 10.4447 12.875 10.4447 13.275V14.075C10.4447 14.475 10.7447 14.775 11.1447 14.775Z" fill="#3A3A3A"/>
</svg>
