<svg width="33" height="31" viewBox="0 0 33 31" fill="none" xmlns="http://www.w3.org/2000/svg">
<path d="M19.8 2.29998C23.7 3.49998 26 5.89998 26.5 6.49998C26.7 6.69998 29.2 9.59997 29.8 13.4C30.1 15.5 29.9 17.7 29.8 18C29.8 18.4 29.7 18.8 29.7 19C29.4 20.2 29 21.3 28.4 22.4C28.2 22.7 28.2 23 28.3 23.3C28.8 24.9 29.3 26.5 29.8 28C29.8 28.1 29.9 28.3 29.9 28.4C29.9 28.5 30 28.8 29.9 29.1C29.8 29.5 29.5 29.7 29.2 29.8C28.8 29.9 28.4 29.8 28.2 29.7C26.5 29.2 24.9 28.6 23.2 28.1C22.9 28 22.7 28 22.5 28.2C20.2 29.5 17.6 30 15 29.9C12.7 29.7 10.7 29.2 8.90003 28.2C8.40003 27.9 6.30003 26.7 4.50003 24.1C3.80003 23.1 1.40003 19.4 1.80003 14.6C1.90003 13.3 2.20003 12.3 2.40003 11.7C3.30003 8.99998 4.70003 6.79998 6.50003 5.19998C6.70003 5.09998 7.00003 4.79998 7.40003 4.49998C10.1 2.49998 12.7 1.99998 13.4 1.89998C14.2 1.79998 16.7 1.39998 19.8 2.29998ZM6.50003 7.39998C4.60003 9.49998 3.50003 11.9 3.30003 14.7C3.00003 17.9 3.80003 20.8 5.70003 23.4C7.60003 26 10.2 27.7 13.4 28.4C16.5 29 19.4 28.6 22.1 27C22.2 26.9 22.4 26.8 22.5 26.8C22.9 26.5 23.3 26.5 23.8 26.7C25.1 27.1 26.3 27.5 27.6 27.9C27.7 27.9 27.8 28 27.9 27.9C28 27.8 27.9 27.7 27.9 27.6C27.5 26.3 27.1 25.1 26.7 23.8C26.5 23.3 26.6 22.9 26.8 22.5C27.7 21 28.3 19.4 28.5 17.7C28.9 14.5 28.3 11.5 26.4 8.79998C24.8 6.39998 22.6 4.79998 19.8 3.89998C18.6 3.49998 17.2 3.29998 16.1 3.29998C12.1 3.19998 9.00003 4.59998 6.50003 7.39998Z" fill="url(#paint0_linear_57_480)" stroke="url(#paint1_linear_57_480)" stroke-miterlimit="10"/>
<path d="M10.9 19.4H20.5C20.9 19.4 21.2 19.1 21.2 18.7V17.9C21.2 17.5 20.9 17.2 20.5 17.2H10.9C10.5 17.2 10.2 17.5 10.2 17.9V18.7C10.2 19.1 10.5 19.4 10.9 19.4Z" fill="url(#paint2_linear_57_480)"/>
<path d="M10.9 14.5H20.5C20.9 14.5 21.2 14.2 21.2 13.8V13C21.2 12.6 20.9 12.3 20.5 12.3H10.9C10.5 12.3 10.2 12.6 10.2 13V13.8C10.2 14.2 10.5 14.5 10.9 14.5Z" fill="url(#paint3_linear_57_480)"/>
<defs>
<linearGradient id="paint0_linear_57_480" x1="15.8569" y1="29.9124" x2="15.8569" y2="1.72498" gradientUnits="userSpaceOnUse">
<stop stop-color="#009EE9"/>
<stop offset="0.2586" stop-color="#009EE9"/>
<stop offset="1" stop-color="#00C3BA"/>
</linearGradient>
<linearGradient id="paint1_linear_57_480" x1="15.8569" y1="30.4124" x2="15.8569" y2="1.22498" gradientUnits="userSpaceOnUse">
<stop stop-color="#009EE9"/>
<stop offset="0.2586" stop-color="#009EE9"/>
<stop offset="1" stop-color="#00C3BA"/>
</linearGradient>
<linearGradient id="paint2_linear_57_480" x1="15.7" y1="19.4" x2="15.7" y2="17.2" gradientUnits="userSpaceOnUse">
<stop stop-color="#009EE9"/>
<stop offset="0.2586" stop-color="#009EE9"/>
<stop offset="1" stop-color="#00C3BA"/>
</linearGradient>
<linearGradient id="paint3_linear_57_480" x1="15.7" y1="14.5" x2="15.7" y2="12.3" gradientUnits="userSpaceOnUse">
<stop stop-color="#009EE9"/>
<stop offset="0.2586" stop-color="#009EE9"/>
<stop offset="1" stop-color="#00C3BA"/>
</linearGradient>
</defs>
</svg>
