<svg width="27" height="32" viewBox="0 0 27 32" fill="none" xmlns="http://www.w3.org/2000/svg">
<path d="M25.1027 27.7281H23.2027C23.2027 28.1281 23.2027 28.4281 23.2027 28.8281C23.2027 29.2281 23.2027 29.2281 22.8027 29.2281C19.7027 29.2281 16.6027 29.2281 13.5027 29.2281C10.4027 29.2281 7.30269 29.2281 4.20269 29.2281C3.80269 29.2281 3.80269 29.2281 3.80269 28.8281C3.80269 27.0281 3.80269 25.3281 3.80269 23.5281C3.80269 20.9281 5.60269 18.4281 8.40269 17.9281C8.80269 17.8281 9.20269 17.8281 9.60269 17.8281C12.2027 17.8281 14.8027 17.8281 17.4027 17.8281C20.2027 17.8281 22.7027 19.8281 23.2027 22.8281C23.2027 23.1281 23.2027 23.3281 23.2027 23.6281H25.1027C25.1027 23.1281 25.1027 22.7281 25.0027 22.2281C24.4027 18.7281 21.2027 16.0281 17.7027 16.0281C15.0027 16.0281 12.2027 16.0281 9.50269 16.0281C9.20269 16.0281 8.80269 16.0281 8.50269 16.1281C4.60269 16.6281 1.90269 19.9281 2.00269 23.6281C2.00269 25.7281 2.00269 27.8281 2.00269 29.9281C2.00269 30.5281 2.50269 31.0281 3.10269 31.0281H24.0027C24.6027 31.0281 25.1027 30.5281 25.1027 29.9281C25.1027 29.2281 25.1027 28.4281 25.1027 27.7281Z" fill="#3A3A3A" stroke="#3A3A3A" stroke-width="0.5" stroke-miterlimit="10"/>
<path d="M14.2027 2.028C15.7027 2.228 17.0027 3.028 17.0027 3.028C18.5027 3.928 19.1027 5.128 19.3027 5.428C19.7027 6.228 20.0027 7.028 20.1027 8.028C20.5027 11.628 18.0027 14.828 14.5027 15.428C10.9027 16.028 7.30269 13.528 6.70269 9.928C6.10269 6.228 8.60269 2.728 12.4027 2.128C12.4027 2.128 13.2027 1.928 14.2027 2.028ZM18.2027 8.828C18.3027 6.328 16.2027 3.928 13.3027 3.928C10.3027 3.928 8.40269 6.428 8.40269 8.828C8.40269 11.228 10.3027 13.728 13.3027 13.728C16.3027 13.728 18.3027 11.328 18.2027 8.828Z" fill="#3A3A3A" stroke="#3A3A3A" stroke-width="0.5" stroke-miterlimit="10"/>
</svg>
