<svg width="33" height="31" viewBox="0 0 33 31" fill="none" xmlns="http://www.w3.org/2000/svg">
<g clip-path="url(#clip0_57_494)">
<path d="M31.2 17C31 17.5 30.9 17.8 30.6 18.2C30.1 18.9 29.2 19.2 28.1 19.3C27.7 19.3 27.3 19.2 27.2 19.8C27.1 20.3 26.6 20.7 27.2 21.3C28.7 22.7 28.7 24.3 27.2 25.8C26.9 26.1 26.5999 26.4 26.2999 26.7C24.9 28.1 23.4 28.1 21.9 26.7C21.6999 26.5 21.5 26.2 21.2999 26.2C20.7999 26.3 20.4 26.5 20 26.7C19.9 26.7 19.9 27 19.9 27.2C19.7999 27.7 19.9 28.3 19.7 28.8C19.4 29.9 18.3 30.6 17.2 30.6C16.6 30.6 16 30.6 15.4 30.6C13.6 30.6 12.5 29.5 12.4 27.7C12.4 27.4 12.5 26.9 12.3 26.7C12 26.4 11.5 26.2 11 26.1C10.8 26.1 10.5 26.3 10.4 26.5C9.79995 27.2 8.99995 27.6 8.09995 27.6C7.89995 27.6 7.69995 27.6 7.49995 27.5C5.89995 26.8 4.69995 25.7 4.09995 24.1C3.79995 23.2 4.09995 22.3 4.79995 21.5C5.09995 21.2 5.69995 21 5.39995 20.3C5.09995 19.5 4.79995 19.1 3.79995 19.2C2.39995 19.3 1.29995 18.4 1.09995 17.1C0.899951 16.1 0.899951 15 1.09995 13.9C1.29995 12.5 2.39995 11.8 3.89995 11.8C4.39995 11.8 4.69995 11.7 4.99995 11.4C5.39995 11.1 5.39995 10.6 5.39995 10.5C5.59995 9.2 4.29995 8.6 4.19995 7.4C3.99995 5.6 6.49995 3.5 8.19995 3.5C9.19995 3.5 9.99995 3.9 10.6 4.6C10.9 4.9 11.2 5 11.6 4.8C12.3 4.5 12.6 4.2 12.6 3.4C12.6 1.6 13.8 0.5 15.5 0.5C16 0.5 16.6 0.5 17.1 0.5C18.8 0.5 20 1.6 20 3.3C20 4.3 20.2999 4.7 21.2999 4.9C21.4 4.9 21.6 4.8 21.7 4.7C22 4.5 22.1999 4.2 22.4 4C23.1999 3.4 24.1 3.1 25 3.5C26.5 4.2 27.7 5.3 28.2 6.9C28.5 7.8 28.2 8.6 27.6 9.3C27.3 9.7 26.7999 9.7 26.4 9.4C26 9.1 25.9 8.7 26.1 8.2C26.6 7.2 26.5999 7.1 25.7999 6.4C25.5999 6.2 25.2999 6 25 5.7C24.4 5.2 24 5.1 23.4 5.7C23 6 22.6999 6.4 22.4 6.7C22 7.1 21.6 7.2 21 6.9C20.2999 6.6 19.6 6.3 18.9 6C18.4 5.8 18.1 5.5 18.1 4.9C18.1 4.4 18.1 3.9 18.1 3.4C18.1 2.6 17.7999 2.3 17 2.3C16.4 2.3 15.9 2.3 15.3 2.3C14.7 2.3 14.3 2.7 14.3 3.3C14.3 3.8 14.3 4.4 14.3 4.9C14.3 5.4 14.1 5.7 13.6 5.9C12.8 6.2 12.1 6.5 11.4 6.8C10.9 7 10.5 7 10.1 6.6C9.79995 6.4 9.39995 6 8.99995 5.6C8.49995 5.1 7.99995 5.1 7.49995 5.6C7.09995 6 6.69995 6.4 6.39995 6.8C5.89995 7.3 5.89995 7.8 6.39995 8.3C6.69995 8.7 7.09995 9 7.39995 9.4C7.79995 9.8 7.89995 10.2 7.59995 10.7C7.29995 11.4 6.99995 12.2 6.69995 12.9C6.49995 13.4 6.19995 13.6 5.69995 13.6C5.19995 13.6 4.59995 13.6 4.09995 13.6C3.39995 13.6 3.09995 14 2.99995 14.7C2.99995 15.3 2.99995 15.8 2.99995 16.4C2.99995 17.1 3.39995 17.5 4.09995 17.5C4.59995 17.5 5.09995 17.5 5.59995 17.5C6.09995 17.5 6.49995 17.7 6.69995 18.2C6.99995 19 7.29995 19.8 7.69995 20.5C7.89995 21 7.79995 21.3 7.49995 21.7C7.09995 22.1 6.69995 22.4 6.39995 22.8C5.89995 23.3 5.89995 23.8 6.39995 24.3C6.79995 24.7 7.19995 25.1 7.59995 25.5C8.09995 26 8.59995 26 9.09995 25.5C9.49995 25.2 9.79995 24.8 10.2 24.4C10.6 24 11 23.9 11.5 24.2C12.2 24.5 13 24.8 13.7 25.1C14.2 25.3 14.4 25.6 14.4 26.1C14.4 26.6 14.4 27.1 14.4 27.6C14.4 28.3 14.8 28.7 15.5 28.7C16.1 28.7 16.6 28.7 17.2 28.7C17.8 28.7 18.2 28.3 18.2 27.7C18.2 27.2 18.2 26.6 18.2 26C18.2 25.5 18.4 25.2 18.9 25C19.6999 24.7 20.4 24.4 21.1 24.1C21.6 23.9 22 23.9 22.2999 24.3C22.6999 24.7 23.1 25.1 23.5 25.5C24 25.9 24.5 25.9 24.9 25.5C25.4 25.1 25.8 24.6 26.2 24.2C26.6 23.8 26.6 23.3 26.2 22.8C25.8 22.4 25.5 22 25.1 21.7C24.7 21.3 24.6 20.9 24.9 20.4C25.1999 19.7 25.6 18.9 25.9 18.1C26.1 17.6 26.2999 17.4 26.9 17.4C27.4 17.4 28 17.4 28.5 17.4C29.2 17.4 29.5 17 29.5 16.4C29.5 15.8 29.5 15.3 29.5 14.7C29.5 14.1 29.2 13.7 28.6 13.6C27.9 13.5 27.6 13.1 27.7 12.6C27.8 12.1 28.1999 11.8 28.7999 11.8C30.1999 11.9 31.4 13.1 31.4 14.5C31.5 15.1 31.5 16 31.2 17Z" fill="url(#paint0_linear_57_494)" stroke="url(#paint1_linear_57_494)" stroke-width="0.5" stroke-miterlimit="10"/>
<path d="M16.3 9.89998C15.8 9.89998 15.2 9.89998 14.4 10.2C13.7 10.4 13.1 10.8 12.5 11.4C11.8 12 11.4 12 11 11.6C10.6 11.1 10.7 10.6 11.3 9.99998C14.8 6.79998 20.5 7.79998 22.8 11.9C25.5 16.8 22.2 22.8 16.5 23.1C15.7 23.1 15.3 22.8 15.3 22.2C15.3 21.6 15.7 21.3 16.5 21.2C19.5 21 21.7 18.9 21.9 15.9C22 14.7 21.6 13.7 21.5 13.5C20.7 11.3 18.4 9.89998 16.3 9.89998Z" fill="url(#paint2_linear_57_494)" stroke="url(#paint3_linear_57_494)" stroke-width="0.5" stroke-miterlimit="10"/>
<path d="M9.80005 15C9.20005 15 8.80005 14.6 8.80005 14C8.80005 13.9 8.80005 13.7 8.90005 13.6C9.10005 13.3 9.40005 13.1 9.80005 13.1C10.2 13.1 10.5 13.3 10.7 13.7C10.8 14.1 10.7 14.5 10.5 14.7C10.2 15 9.90005 15 9.80005 15Z" fill="url(#paint4_linear_57_494)" stroke="url(#paint5_linear_57_494)" stroke-width="0.5" stroke-miterlimit="10"/>
</g>
<defs>
<linearGradient id="paint0_linear_57_494" x1="16.2012" y1="30.5157" x2="16.2012" y2="0.526401" gradientUnits="userSpaceOnUse">
<stop stop-color="#009EE9"/>
<stop offset="0.2586" stop-color="#009EE9"/>
<stop offset="1" stop-color="#00C3BA"/>
</linearGradient>
<linearGradient id="paint1_linear_57_494" x1="16.2012" y1="30.7657" x2="16.2012" y2="0.276401" gradientUnits="userSpaceOnUse">
<stop stop-color="#009EE9"/>
<stop offset="0.2586" stop-color="#009EE9"/>
<stop offset="1" stop-color="#00C3BA"/>
</linearGradient>
<linearGradient id="paint2_linear_57_494" x1="17.2585" y1="23.0096" x2="17.2585" y2="8.03118" gradientUnits="userSpaceOnUse">
<stop stop-color="#009EE9"/>
<stop offset="0.2586" stop-color="#009EE9"/>
<stop offset="1" stop-color="#00C3BA"/>
</linearGradient>
<linearGradient id="paint3_linear_57_494" x1="17.2585" y1="23.2596" x2="17.2585" y2="7.78118" gradientUnits="userSpaceOnUse">
<stop stop-color="#009EE9"/>
<stop offset="0.2586" stop-color="#009EE9"/>
<stop offset="1" stop-color="#00C3BA"/>
</linearGradient>
<linearGradient id="paint4_linear_57_494" x1="9.76105" y1="15.0302" x2="9.76105" y2="13.2044" gradientUnits="userSpaceOnUse">
<stop stop-color="#009EE9"/>
<stop offset="0.2586" stop-color="#009EE9"/>
<stop offset="1" stop-color="#00C3BA"/>
</linearGradient>
<linearGradient id="paint5_linear_57_494" x1="9.76105" y1="15.2802" x2="9.76105" y2="12.9544" gradientUnits="userSpaceOnUse">
<stop stop-color="#009EE9"/>
<stop offset="0.2586" stop-color="#009EE9"/>
<stop offset="1" stop-color="#00C3BA"/>
</linearGradient>
<clipPath id="clip0_57_494">
<rect width="32.8" height="31" fill="white"/>
</clipPath>
</defs>
</svg>
