<svg width="34" height="34" viewBox="0 0 34 34" fill="none" xmlns="http://www.w3.org/2000/svg">
<path d="M32.25 18.5C32.05 19 31.95 19.3 31.65 19.7C31.15 20.4 30.25 20.7 29.15 20.8C28.75 20.8 28.35 20.7 28.25 21.3C28.15 21.8 27.65 22.2 28.25 22.8C29.75 24.2 29.75 25.8 28.25 27.3C27.95 27.6 27.65 27.9 27.35 28.2C25.95 29.6 24.45 29.6 22.95 28.2C22.75 28 22.55 27.7 22.35 27.7C21.85 27.8 21.45 28 21.05 28.2C20.95 28.2 20.95 28.5 20.95 28.7C20.85 29.2 20.95 29.8 20.75 30.3C20.45 31.4 19.35 32.1 18.25 32.1C17.65 32.1 17.05 32.1 16.45 32.1C14.65 32.1 13.55 31 13.45 29.2C13.45 28.9 13.55 28.4 13.35 28.2C13.05 27.9 12.55 27.7 12.05 27.6C11.85 27.6 11.55 27.8 11.45 28C10.85 28.7 10.05 29.1 9.15 29.1C8.95 29.1 8.75 29.1 8.55 29C6.95 28.3 5.75 27.2 5.15 25.6C4.85 24.7 5.15 23.8 5.85 23C6.15 22.7 6.75 22.5 6.45 21.8C6.15 21 5.85 20.6 4.85 20.7C3.45 20.8 2.35 19.9 2.15 18.6C1.95 17.6 1.95 16.5 2.15 15.4C2.35 14 3.45 13.3 4.95 13.3C5.45 13.3 5.75 13.2 6.05 12.9C6.45 12.6 6.45 12.1 6.45 12C6.65 10.7 5.35 10.1 5.25 8.9C5.05 7.1 7.55 5 9.25 5C10.25 5 11.05 5.4 11.65 6.1C11.95 6.4 12.25 6.5 12.65 6.3C13.35 6 13.65 5.7 13.65 4.9C13.65 3.1 14.85 2 16.55 2C17.05 2 17.65 2 18.15 2C19.85 2 21.05 3.1 21.05 4.8C21.05 5.8 21.35 6.2 22.35 6.4C22.45 6.4 22.65 6.3 22.75 6.2C23.05 6 23.25 5.7 23.45 5.5C24.25 4.9 25.15 4.6 26.05 5C27.55 5.7 28.75 6.8 29.25 8.4C29.55 9.3 29.25 10.1 28.65 10.8C28.35 11.2 27.85 11.2 27.45 10.9C27.05 10.6 26.95 10.2 27.15 9.7C27.65 8.7 27.65 8.6 26.85 7.9C26.65 7.7 26.35 7.5 26.05 7.2C25.45 6.7 25.05 6.6 24.45 7.2C24.05 7.5 23.75 7.9 23.45 8.2C23.05 8.6 22.65 8.7 22.05 8.4C21.35 8.1 20.65 7.8 19.95 7.5C19.45 7.3 19.15 7 19.15 6.4C19.15 5.9 19.15 5.4 19.15 4.9C19.15 4.1 18.85 3.8 18.05 3.8C17.45 3.8 16.95 3.8 16.35 3.8C15.75 3.8 15.35 4.2 15.35 4.8C15.35 5.3 15.35 5.9 15.35 6.4C15.35 6.9 15.15 7.2 14.65 7.4C13.85 7.7 13.15 8 12.45 8.3C11.95 8.5 11.55 8.5 11.15 8.1C10.85 7.9 10.45 7.5 10.05 7.1C9.55 6.6 9.05 6.6 8.55 7.1C8.15 7.5 7.75 7.9 7.45 8.3C6.95 8.8 6.95 9.3 7.45 9.8C7.75 10.2 8.15 10.5 8.45 10.9C8.85 11.3 8.95 11.7 8.65 12.2C8.35 12.9 8.05 13.7 7.75 14.4C7.55 14.9 7.25 15.1 6.75 15.1C6.25 15.1 5.65 15.1 5.15 15.1C4.45 15.1 4.15 15.5 4.05 16.2C4.05 16.8 4.05 17.3 4.05 17.9C4.05 18.6 4.45 19 5.15 19C5.65 19 6.15 19 6.65 19C7.15 19 7.55 19.2 7.75 19.7C8.05 20.5 8.35 21.3 8.75 22C8.95 22.5 8.85 22.8 8.55 23.2C8.15 23.6 7.75 23.9 7.45 24.3C6.95 24.8 6.95 25.3 7.45 25.8C7.85 26.2 8.25 26.6 8.65 27C9.15 27.5 9.65 27.5 10.15 27C10.55 26.7 10.85 26.3 11.25 25.9C11.65 25.5 12.05 25.4 12.55 25.7C13.25 26 14.05 26.3 14.75 26.6C15.25 26.8 15.45 27.1 15.45 27.6C15.45 28.1 15.45 28.6 15.45 29.1C15.45 29.8 15.85 30.2 16.55 30.2C17.15 30.2 17.65 30.2 18.25 30.2C18.85 30.2 19.25 29.8 19.25 29.2C19.25 28.7 19.25 28.1 19.25 27.5C19.25 27 19.45 26.7 19.95 26.5C20.75 26.2 21.45 25.9 22.15 25.6C22.65 25.4 23.05 25.4 23.35 25.8C23.75 26.2 24.15 26.6 24.55 27C25.05 27.4 25.55 27.4 25.95 27C26.45 26.6 26.85 26.1 27.25 25.7C27.65 25.3 27.65 24.8 27.25 24.3C26.85 23.9 26.55 23.5 26.15 23.2C25.75 22.8 25.65 22.4 25.95 21.9C26.25 21.2 26.65 20.4 26.95 19.6C27.15 19.1 27.35 18.9 27.95 18.9C28.45 18.9 29.05 18.9 29.55 18.9C30.25 18.9 30.55 18.5 30.55 17.9C30.55 17.3 30.55 16.8 30.55 16.2C30.55 15.6 30.25 15.2 29.65 15.1C28.95 15 28.65 14.6 28.75 14.1C28.85 13.6 29.25 13.3 29.85 13.3C31.25 13.4 32.45 14.6 32.45 16C32.55 16.6 32.55 17.5 32.25 18.5Z" fill="#3A3A3A" stroke="#3A3A3A" stroke-width="0.5" stroke-miterlimit="10"/>
<path d="M17.3501 11.3999C16.8501 11.3999 16.2501 11.3999 15.4501 11.6999C14.7501 11.8999 14.1501 12.2999 13.5501 12.8999C12.8501 13.4999 12.4501 13.4999 12.0501 13.0999C11.6501 12.5999 11.7501 12.0999 12.3501 11.4999C15.8501 8.29992 21.5501 9.29992 23.8501 13.3999C26.5501 18.2999 23.2501 24.2999 17.5501 24.5999C16.7501 24.5999 16.3501 24.2999 16.3501 23.6999C16.3501 23.0999 16.7501 22.7999 17.5501 22.6999C20.5501 22.4999 22.7501 20.3999 22.9501 17.3999C23.0501 16.1999 22.6501 15.1999 22.5501 14.9999C21.7501 12.7999 19.4501 11.3999 17.3501 11.3999Z" fill="#3A3A3A" stroke="#3A3A3A" stroke-width="0.5" stroke-miterlimit="10"/>
<path d="M10.85 16.5001C10.75 16.5001 10.45 16.5001 10.15 16.2001C9.84998 15.9001 9.84998 15.6001 9.84998 15.5001C9.84998 15.4001 9.84998 15.3001 9.94998 15.1001C10.05 14.8001 10.35 14.7001 10.45 14.7001C10.65 14.6001 10.75 14.6001 10.85 14.6001C10.95 14.6001 11.15 14.6001 11.25 14.7001C11.65 14.9001 11.85 15.4001 11.75 15.8001C11.75 16.0001 11.55 16.2001 11.55 16.2001C11.25 16.5001 10.95 16.5001 10.85 16.5001Z" fill="#3A3A3A" stroke="#3A3A3A" stroke-width="0.5" stroke-miterlimit="10"/>
</svg>
