<svg width="30" height="32" viewBox="0 0 30 32" fill="none" xmlns="http://www.w3.org/2000/svg">
<path d="M15.5 1C16.5 1 17.4 1.2 18.1 1.3C24.5 2.5 29.2 8.6 28 15.5C27.2 20.4 24.3 23.6 19.7 25.4C19.5 25.5 19.4 25.6 19.2 25.8C18.4 27 17.5 28.3 16.7 29.5C16.5 29.8 16.3 30.1 15.9 30.2C15.7 30.2 15.5 30.3 15.2 30.2C14.8 30.1 14.5 29.7 14.4 29.5C13.6 28.3 12.8 27.1 11.9 25.9C11.8 25.7 11.6 25.6 11.4 25.5C6.4 23.6 3.6 19.9 3 14.6C3 12.3 3.4 10.3 4.3 8.3C5.1 6.6 6.2 5.2 7.5 4.1C8.5 3.3 10 2.1 12.2 1.5C13.8 1 15.2 1 15.5 1ZM15.7 2.5C15 2.5 14.3 2.6 13.5 2.7C7.9 3.9 4 9.2 4.9 15.1C5.6 19.6 8.3 22.5 12.6 23.9C13 24 13.3 24.2 13.5 24.6C14.1 25.6 14.8 26.5 15.4 27.5C15.6 27.8 15.6 27.8 15.8 27.5C16.4 26.6 17.1 25.6 17.7 24.7C18 24.3 18.3 24.1 18.7 23.9C23.9 22.3 27.2 17.3 26.3 11.8C25.7 6.4 21.2 2.6 15.7 2.5Z" fill="#3A3A3A" stroke="#3A3A3A" stroke-width="0.5" stroke-miterlimit="10"/>
<path d="M17 15.1999C17 16.1999 17 17.0999 17 18.0999C17 18.4999 16.8 18.6999 16.5 18.8999C16.1 19.0999 15.7 19.0999 15.2 18.9999C14.6 18.7999 14.4 18.5999 14.4 17.9999C14.4 16.0999 14.4 14.2999 14.4 12.3999C14.4 11.7999 14.6 11.4999 15.2 11.3999C15.6 11.2999 16.1 11.2999 16.5 11.4999C16.8 11.5999 17 11.8999 17 12.1999C17 13.2999 17 14.2999 17 15.1999Z" fill="#3A3A3A" stroke="#3A3A3A" stroke-width="0.5" stroke-miterlimit="10"/>
<path d="M15.7 9.99994C15.4 9.99994 15.1 9.89994 14.8 9.69994C14.2 9.19994 14.2 8.39994 14.8 7.89994C15.2 7.59994 15.5 7.59994 16 7.69994C16.6 7.89994 17 8.29994 17 8.89994C17 9.49994 16.4 9.89994 15.8 9.99994H15.7Z" fill="#3A3A3A" stroke="#3A3A3A" stroke-width="0.5" stroke-miterlimit="10"/>
</svg>
