<svg width="234" height="82" viewBox="0 0 234 82" fill="none" xmlns="http://www.w3.org/2000/svg">
<path d="M218.858 73.4616H16.016C11.8439 73.4616 8.45953 70.0753 8.45953 65.9009V15.3409C8.45953 11.1665 11.8439 7.78027 16.016 7.78027H218.858C223.031 7.78027 226.415 11.1665 226.415 15.3409V65.9155C226.4 70.0753 223.016 73.4616 218.858 73.4616Z" fill="white"/>
<path d="M218.64 8.90441C222.52 8.90441 225.671 12.0571 225.671 15.9396V65.7844C225.671 69.6669 222.52 72.8196 218.64 72.8196H16.0014C12.1211 72.8196 8.97013 69.6669 8.97013 65.7844V15.9396C8.97013 12.0571 12.1211 8.90441 16.0014 8.90441H218.64ZM218.64 7.44482H16.0014C11.3188 7.44482 7.51135 11.2543 7.51135 15.9396V65.7844C7.51135 70.4696 11.3188 74.2792 16.0014 74.2792H218.64C223.322 74.2792 227.13 70.4696 227.13 65.7844V15.9396C227.13 11.2397 223.322 7.44482 218.64 7.44482Z" fill="black"/>
<path d="M30.6329 34.739C27.0735 40.9276 29.3346 50.3128 33.2733 56.0051C35.2426 58.8513 37.2266 61.4056 39.9545 61.4056C40.0128 61.4056 40.0566 61.4056 40.1149 61.4056C41.3987 61.3618 42.3177 60.9531 43.2221 60.5736C44.2287 60.1504 45.2644 59.6979 46.8982 59.6979C48.4445 59.6979 49.4365 60.1212 50.3993 60.5444C51.3475 60.9531 52.3103 61.3764 53.7545 61.3472C56.8325 61.2888 58.7143 58.5302 60.3773 56.1073C62.1132 53.5676 62.9885 51.1009 63.2802 50.1668L63.2948 50.123C63.3532 49.9625 63.2657 49.7727 63.1052 49.6997C63.1052 49.6997 63.0906 49.6851 63.076 49.6851C62.5363 49.4662 57.7953 47.3644 57.7369 41.6136C57.6931 36.943 61.2963 34.4763 62.0257 34.0384L62.0549 34.0238C62.1278 33.98 62.1862 33.8925 62.2008 33.8049C62.2153 33.7173 62.2008 33.6151 62.1424 33.5422C59.6479 29.8932 55.8405 29.3531 54.3088 29.2802C54.09 29.251 53.8566 29.251 53.6232 29.251C51.8143 29.251 50.0929 29.937 48.7071 30.477C47.7443 30.8565 46.9274 31.1776 46.3439 31.1776C45.702 31.1776 44.8705 30.8419 43.9077 30.4624C42.624 29.9516 41.1507 29.3677 39.6044 29.3677C39.5606 29.3677 39.5314 29.3677 39.5022 29.3677C35.8991 29.4261 32.5001 31.4841 30.6329 34.739Z" fill="black"/>
<path d="M54.3088 19.2383C52.1352 19.3259 49.524 20.6687 47.9631 22.4932C46.6357 24.0257 45.3374 26.5946 45.6875 29.178C45.702 29.3386 45.8479 29.47 46.0084 29.4846C46.1543 29.4992 46.3001 29.4992 46.4606 29.4992C48.5904 29.4992 50.8807 28.3169 52.4562 26.4194C54.1046 24.4198 54.9361 21.8363 54.6881 19.5448C54.6443 19.3696 54.4838 19.2383 54.3088 19.2383Z" fill="black"/>
<path d="M79.3705 20.5664H83.4989C84.5784 20.5664 85.5412 20.7853 86.3873 21.2378C87.2333 21.6903 87.8752 22.3033 88.342 23.0915C88.8088 23.8797 89.0422 24.7846 89.0422 25.7771C89.0422 26.7842 88.8088 27.6746 88.342 28.4627C87.8752 29.2509 87.2188 29.8785 86.3873 30.3164C85.5412 30.7689 84.5784 30.9878 83.4989 30.9878H79.3705V20.5664ZM83.4405 30.331C84.4033 30.331 85.2494 30.1413 85.9934 29.7618C86.7228 29.3823 87.2917 28.8422 87.7001 28.1562C88.094 27.4702 88.2982 26.6821 88.2982 25.8063C88.2982 24.916 88.094 24.1424 87.7001 23.4564C87.3063 22.7704 86.7374 22.2303 85.9934 21.8508C85.264 21.4713 84.4033 21.2816 83.4405 21.2816H80.1291V30.331H83.4405Z" fill="black"/>
<path d="M92.4995 30.5645C91.9014 30.2288 91.4492 29.7618 91.0991 29.1487C90.7636 28.5503 90.5885 27.8643 90.5885 27.1053C90.5885 26.3463 90.7636 25.6749 91.0991 25.0619C91.4346 24.4635 91.9014 23.9964 92.4995 23.6461C93.0976 23.3104 93.754 23.1353 94.4834 23.1353C95.2128 23.1353 95.8839 23.3104 96.4674 23.6461C97.0655 23.9818 97.5177 24.4489 97.8678 25.0619C98.2033 25.6603 98.3784 26.3463 98.3784 27.1053C98.3784 27.8643 98.2033 28.5357 97.8678 29.1487C97.5323 29.7472 97.0655 30.2142 96.4674 30.5645C95.8693 30.9002 95.2128 31.0754 94.4834 31.0754C93.754 31.0754 93.083 30.9002 92.4995 30.5645ZM96.0881 29.9807C96.5549 29.7034 96.9342 29.3093 97.2114 28.813C97.4885 28.3168 97.6198 27.7475 97.6198 27.1053C97.6198 26.4631 97.4885 25.9085 97.2114 25.3976C96.9342 24.9014 96.5695 24.5073 96.0881 24.2299C95.6213 23.9526 95.0815 23.8067 94.4834 23.8067C93.8853 23.8067 93.3456 23.9526 92.8788 24.2299C92.412 24.5073 92.0327 24.9014 91.7555 25.3976C91.4784 25.8939 91.3471 26.4631 91.3471 27.1053C91.3471 27.7475 91.4784 28.3022 91.7555 28.813C92.0327 29.3093 92.3974 29.7034 92.8788 29.9807C93.3456 30.258 93.8853 30.404 94.4834 30.404C95.0815 30.404 95.6213 30.2726 96.0881 29.9807Z" fill="black"/>
<path d="M111.595 23.2231L108.648 31.0173H107.948L105.322 24.2594L102.682 31.0173H101.996L99.0494 23.2231H99.7642L102.361 30.1708L105.016 23.2231H105.658L108.298 30.1562L110.924 23.2231H111.595Z" fill="black"/>
<path d="M119.428 24.0257C119.997 24.5949 120.275 25.4123 120.275 26.4778V31.0316H119.531V26.5361C119.531 25.6604 119.312 24.989 118.874 24.5365C118.437 24.084 117.809 23.8505 117.022 23.8505C116.102 23.8505 115.388 24.1278 114.863 24.6679C114.337 25.2079 114.075 25.9523 114.075 26.8718V31.0171H113.331V23.2229H114.046V24.9014C114.308 24.3614 114.717 23.9235 115.242 23.617C115.767 23.3105 116.409 23.1499 117.124 23.1499C118.101 23.1645 118.86 23.4564 119.428 24.0257Z" fill="black"/>
<path d="M123.353 19.9536H124.097V31.0172H123.353V19.9536Z" fill="black"/>
<path d="M128.298 30.5645C127.7 30.2288 127.248 29.7618 126.897 29.1487C126.562 28.5503 126.387 27.8643 126.387 27.1053C126.387 26.3463 126.562 25.6749 126.897 25.0619C127.233 24.4635 127.7 23.9964 128.298 23.6461C128.896 23.3104 129.552 23.1353 130.282 23.1353C131.011 23.1353 131.682 23.3104 132.266 23.6461C132.864 23.9818 133.316 24.4489 133.666 25.0619C134.002 25.6603 134.177 26.3463 134.177 27.1053C134.177 27.8643 134.002 28.5357 133.666 29.1487C133.331 29.7472 132.864 30.2142 132.266 30.5645C131.668 30.9002 131.011 31.0754 130.282 31.0754C129.552 31.0754 128.881 30.9002 128.298 30.5645ZM131.886 29.9807C132.353 29.7034 132.733 29.3093 133.01 28.813C133.287 28.3168 133.418 27.7475 133.418 27.1053C133.418 26.4631 133.287 25.9085 133.01 25.3976C132.733 24.9014 132.368 24.5073 131.886 24.2299C131.42 23.9526 130.88 23.8067 130.282 23.8067C129.684 23.8067 129.144 23.9526 128.677 24.2299C128.21 24.5073 127.831 24.9014 127.554 25.3976C127.277 25.8939 127.145 26.4631 127.145 27.1053C127.145 27.7475 127.277 28.3022 127.554 28.813C127.831 29.3093 128.196 29.7034 128.677 29.9807C129.144 30.258 129.684 30.404 130.282 30.404C130.88 30.404 131.42 30.2726 131.886 29.9807Z" fill="black"/>
<path d="M141.31 23.9089C141.821 24.4052 142.083 25.1204 142.083 26.0837V31.0171H141.368V29.6305C141.12 30.083 140.756 30.4479 140.274 30.696C139.793 30.9441 139.224 31.0755 138.553 31.0755C137.692 31.0755 137.007 30.8712 136.496 30.4625C136 30.0538 135.738 29.5137 135.738 28.8569C135.738 28.2147 135.971 27.6893 136.438 27.2806C136.905 26.8719 137.634 26.6822 138.655 26.6822H141.325V26.0545C141.325 25.3247 141.135 24.7701 140.741 24.4052C140.347 24.0257 139.778 23.836 139.02 23.836C138.509 23.836 138.013 23.9235 137.532 24.0987C137.065 24.2738 136.657 24.522 136.336 24.8139L135.956 24.2738C136.35 23.9235 136.817 23.6608 137.357 23.4565C137.897 23.2667 138.48 23.1646 139.078 23.1646C140.041 23.1646 140.785 23.4127 141.31 23.9089ZM140.318 30.01C140.77 29.7181 141.106 29.2802 141.339 28.711V27.2514H138.684C137.926 27.2514 137.371 27.3974 137.021 27.6747C136.671 27.952 136.511 28.3315 136.511 28.8277C136.511 29.3386 136.7 29.7327 137.08 30.0246C137.459 30.3165 137.984 30.4625 138.67 30.4625C139.312 30.4625 139.866 30.3165 140.318 30.01Z" fill="black"/>
<path d="M152.09 19.9536V31.0172H151.361V29.1781C151.055 29.7912 150.617 30.2582 150.063 30.5793C149.508 30.9004 148.881 31.0756 148.166 31.0756C147.437 31.0756 146.78 30.9004 146.197 30.5647C145.613 30.229 145.147 29.762 144.811 29.1635C144.476 28.5651 144.315 27.8791 144.315 27.1201C144.315 26.3611 144.476 25.6751 144.811 25.0621C145.147 24.4637 145.599 23.9966 146.197 23.6609C146.78 23.3252 147.437 23.1646 148.166 23.1646C148.866 23.1646 149.479 23.3252 150.034 23.6609C150.588 23.982 151.025 24.4491 151.332 25.0329V19.939H152.09V19.9536ZM149.815 29.9809C150.282 29.7036 150.661 29.3095 150.938 28.8132C151.215 28.317 151.346 27.7477 151.346 27.1055C151.346 26.4633 151.215 25.9087 150.938 25.3978C150.661 24.9015 150.296 24.5075 149.815 24.2301C149.348 23.9528 148.808 23.8069 148.21 23.8069C147.612 23.8069 147.072 23.9528 146.605 24.2301C146.139 24.5075 145.759 24.9015 145.482 25.3978C145.205 25.8941 145.074 26.4633 145.074 27.1055C145.074 27.7477 145.205 28.3024 145.482 28.8132C145.759 29.3095 146.124 29.7036 146.605 29.9809C147.072 30.2582 147.612 30.4042 148.21 30.4042C148.808 30.4042 149.333 30.2728 149.815 29.9809Z" fill="black"/>
<path d="M160.114 30.5645C159.516 30.2288 159.063 29.7618 158.713 29.1487C158.378 28.5503 158.203 27.8643 158.203 27.1053C158.203 26.3463 158.378 25.6749 158.713 25.0619C159.049 24.4635 159.516 23.9964 160.114 23.6461C160.712 23.3104 161.368 23.1353 162.098 23.1353C162.827 23.1353 163.498 23.3104 164.082 23.6461C164.68 23.9818 165.132 24.4489 165.482 25.0619C165.817 25.6603 165.993 26.3463 165.993 27.1053C165.993 27.8643 165.817 28.5357 165.482 29.1487C165.146 29.7472 164.68 30.2142 164.082 30.5645C163.483 30.9002 162.827 31.0754 162.098 31.0754C161.368 31.0754 160.712 30.9002 160.114 30.5645ZM163.702 29.9807C164.169 29.7034 164.548 29.3093 164.826 28.813C165.103 28.3168 165.234 27.7475 165.234 27.1053C165.234 26.4631 165.103 25.9085 164.826 25.3976C164.548 24.9014 164.184 24.5073 163.702 24.2299C163.235 23.9526 162.696 23.8067 162.098 23.8067C161.499 23.8067 160.96 23.9526 160.493 24.2299C160.026 24.5073 159.647 24.9014 159.37 25.3976C159.092 25.8939 158.961 26.4631 158.961 27.1053C158.961 27.7475 159.092 28.3022 159.37 28.813C159.647 29.3093 160.012 29.7034 160.493 29.9807C160.96 30.258 161.499 30.404 162.098 30.404C162.696 30.404 163.235 30.2726 163.702 29.9807Z" fill="black"/>
<path d="M174.424 24.0257C174.993 24.5949 175.27 25.4123 175.27 26.4778V31.0316H174.526V26.5361C174.526 25.6604 174.308 24.989 173.87 24.5365C173.432 24.084 172.805 23.8505 172.017 23.8505C171.098 23.8505 170.383 24.1278 169.858 24.6679C169.333 25.2079 169.071 25.9523 169.071 26.8718V31.0171H168.327V23.2229H169.041V24.9014C169.304 24.3614 169.712 23.9235 170.238 23.617C170.763 23.3105 171.405 23.1499 172.119 23.1499C173.082 23.1645 173.855 23.4564 174.424 24.0257Z" fill="black"/>
<path d="M186.036 30.5208C185.846 30.6959 185.613 30.8419 185.321 30.9295C185.044 31.017 184.738 31.0754 184.431 31.0754C183.76 31.0754 183.235 30.8857 182.871 30.5208C182.506 30.1413 182.316 29.6304 182.316 28.959V23.8651H180.887V23.2229H182.316V21.5151H183.06V23.2229H185.54V23.8651H183.06V28.8714C183.06 29.3823 183.177 29.7618 183.425 30.0245C183.673 30.2872 184.023 30.4186 184.504 30.4186C184.986 30.4186 185.394 30.2726 185.715 29.9807L186.036 30.5208Z" fill="black"/>
<path d="M194.22 24.0259C194.789 24.5951 195.066 25.4125 195.066 26.4779V31.0318H194.322V26.5363C194.322 25.6606 194.103 24.9892 193.665 24.5367C193.228 24.0842 192.601 23.8507 191.813 23.8507C190.894 23.8507 190.179 24.128 189.654 24.6681C189.129 25.2081 188.866 25.9525 188.866 26.872V31.0173H188.122V19.9536H188.866V24.8578C189.129 24.3178 189.537 23.9091 190.062 23.6172C190.587 23.3252 191.215 23.1793 191.929 23.1793C192.878 23.1647 193.651 23.4566 194.22 24.0259Z" fill="black"/>
<path d="M204.738 27.2951H198.042C198.056 27.9081 198.217 28.4481 198.509 28.9152C198.8 29.3823 199.194 29.7472 199.676 30.0099C200.172 30.2726 200.726 30.404 201.339 30.404C201.849 30.404 202.316 30.3164 202.754 30.1267C203.191 29.9369 203.541 29.6742 203.833 29.3093L204.271 29.8056C203.935 30.2142 203.512 30.5207 203.002 30.7397C202.491 30.9586 201.937 31.0608 201.339 31.0608C200.565 31.0608 199.865 30.8856 199.267 30.5499C198.654 30.2142 198.188 29.7472 197.838 29.1487C197.487 28.5503 197.327 27.8643 197.327 27.1053C197.327 26.3463 197.487 25.6749 197.808 25.0619C198.129 24.4635 198.582 23.9964 199.136 23.6461C199.705 23.3104 200.332 23.1353 201.047 23.1353C201.747 23.1353 202.389 23.2958 202.943 23.6315C203.498 23.9672 203.95 24.4343 204.271 25.0327C204.592 25.6311 204.752 26.3026 204.752 27.0615L204.738 27.2951ZM199.559 24.1862C199.121 24.4343 198.771 24.77 198.509 25.2225C198.246 25.6603 198.1 26.1712 198.056 26.7258H204.023C203.994 26.1712 203.848 25.6749 203.571 25.2371C203.308 24.7992 202.943 24.4635 202.506 24.2008C202.068 23.9526 201.572 23.8213 201.032 23.8213C200.493 23.8213 199.997 23.9526 199.559 24.1862Z" fill="black"/>
<path d="M90.4135 54.1078H81.5004L79.7352 58.2384H76.3217L84.345 40.3877H87.6126L95.665 58.2384H92.1932L90.4135 54.1078ZM89.3194 51.4951L85.9496 43.701L82.609 51.4951H89.3194Z" fill="black"/>
<path d="M108.721 45.3357C109.771 45.9195 110.588 46.7223 111.186 47.7878C111.784 48.8387 112.076 50.0502 112.076 51.4368C112.076 52.8088 111.784 54.0348 111.186 55.1003C110.588 56.1658 109.771 56.9832 108.721 57.567C107.671 58.1508 106.489 58.4282 105.162 58.4282C103.324 58.4282 101.879 57.8151 100.8 56.5891V63.1718H97.6198V44.6205H100.654V46.4012C101.179 45.759 101.836 45.2773 102.609 44.9416C103.382 44.6205 104.228 44.46 105.176 44.46C106.489 44.46 107.671 44.7519 108.721 45.3357ZM107.7 54.5165C108.458 53.7283 108.838 52.7066 108.838 51.4368C108.838 50.1669 108.458 49.1306 107.7 48.357C106.941 47.5689 105.979 47.1894 104.812 47.1894C104.053 47.1894 103.353 47.3645 102.755 47.7148C102.142 48.0651 101.661 48.5614 101.296 49.2036C100.946 49.8458 100.756 50.5902 100.756 51.4514C100.756 52.2979 100.931 53.0423 101.296 53.6991C101.646 54.3413 102.142 54.8376 102.755 55.1879C103.367 55.5382 104.053 55.7133 104.812 55.7133C105.979 55.6842 106.941 55.2901 107.7 54.5165Z" fill="black"/>
<path d="M126.197 45.3357C127.248 45.9195 128.064 46.7223 128.663 47.7878C129.261 48.8387 129.552 50.0502 129.552 51.4368C129.552 52.8088 129.261 54.0348 128.663 55.1003C128.064 56.1658 127.248 56.9832 126.197 57.567C125.147 58.1508 123.965 58.4282 122.638 58.4282C120.8 58.4282 119.356 57.8151 118.276 56.5891V63.1718H115.096V44.6205H118.13V46.4012C118.655 45.759 119.312 45.2773 120.085 44.9416C120.858 44.6205 121.704 44.46 122.652 44.46C123.965 44.46 125.147 44.7519 126.197 45.3357ZM125.176 54.5165C125.935 53.7283 126.314 52.7066 126.314 51.4368C126.314 50.1669 125.935 49.1306 125.176 48.357C124.418 47.5689 123.455 47.1894 122.288 47.1894C121.529 47.1894 120.829 47.3645 120.231 47.7148C119.618 48.0651 119.137 48.5614 118.772 49.2036C118.422 49.8458 118.232 50.5902 118.232 51.4514C118.232 52.2979 118.407 53.0423 118.772 53.6991C119.122 54.3413 119.618 54.8376 120.231 55.1879C120.844 55.5382 121.529 55.7133 122.288 55.7133C123.455 55.6842 124.418 55.2901 125.176 54.5165Z" fill="black"/>
<path d="M141.456 57.9028C140.172 57.5087 139.166 56.9979 138.407 56.3411L139.56 53.7722C140.289 54.356 141.179 54.8231 142.244 55.188C143.309 55.5529 144.373 55.7426 145.438 55.7426C146.766 55.7426 147.758 55.5237 148.4 55.1004C149.056 54.6771 149.377 54.1079 149.377 53.4219C149.377 52.9111 149.187 52.4878 148.823 52.1667C148.458 51.831 147.991 51.5828 147.437 51.3931C146.883 51.2033 146.109 50.999 145.147 50.7509C143.79 50.4298 142.681 50.1087 141.85 49.7875C141.004 49.4664 140.289 48.9556 139.691 48.2696C139.093 47.5836 138.786 46.6494 138.786 45.4818C138.786 44.4893 139.049 43.5989 139.589 42.7961C140.128 41.9934 140.931 41.3512 142.01 40.8695C143.09 40.3878 144.403 40.1543 145.978 40.1543C147.072 40.1543 148.137 40.2857 149.187 40.563C150.238 40.8403 151.142 41.2198 151.915 41.7306L150.865 44.2995C150.077 43.847 149.275 43.4967 148.414 43.2486C147.568 43.0151 146.737 42.8983 145.949 42.8983C144.636 42.8983 143.673 43.1173 143.031 43.5551C142.39 43.993 142.083 44.5768 142.083 45.3212C142.083 45.8321 142.258 46.2408 142.638 46.5765C143.002 46.8976 143.469 47.1603 144.023 47.3354C144.578 47.5252 145.351 47.7295 146.314 47.9777C147.641 48.2842 148.721 48.6053 149.581 48.9264C150.427 49.2621 151.157 49.7584 151.755 50.4444C152.353 51.1304 152.659 52.0353 152.659 53.203C152.659 54.1955 152.397 55.0858 151.857 55.874C151.317 56.6768 150.515 57.3044 149.421 57.7861C148.327 58.2677 147.014 58.5013 145.453 58.5013C144.067 58.4867 142.74 58.2969 141.456 57.9028Z" fill="black"/>
<path d="M163.819 57.494C163.44 57.8006 162.987 58.0341 162.462 58.18C161.923 58.326 161.368 58.4136 160.77 58.4136C159.282 58.4136 158.115 58.0195 157.298 57.2459C156.481 56.4577 156.073 55.3193 156.073 53.8305V47.277H153.826V44.7227H156.073V41.6138H159.253V44.7227H162.9V47.277H159.253V53.7575C159.253 54.4143 159.413 54.9252 159.734 55.2755C160.055 55.6258 160.522 55.8009 161.135 55.8009C161.85 55.8009 162.448 55.6112 162.915 55.2463L163.819 57.494Z" fill="black"/>
<path d="M168.37 57.5233C167.262 56.9249 166.401 56.0929 165.788 55.042C165.161 53.9766 164.855 52.7797 164.855 51.4369C164.855 50.0941 165.161 48.8972 165.788 47.8463C166.401 46.7954 167.276 45.9634 168.37 45.3796C169.479 44.7812 170.719 44.4893 172.09 44.4893C173.476 44.4893 174.731 44.7812 175.839 45.3796C176.948 45.978 177.809 46.7954 178.421 47.8463C179.034 48.8972 179.355 50.0941 179.355 51.4369C179.355 52.7797 179.049 53.9766 178.421 55.042C177.794 56.1075 176.933 56.9395 175.839 57.5233C174.731 58.1218 173.491 58.4137 172.09 58.4137C170.719 58.4137 169.479 58.1072 168.37 57.5233ZM175.008 54.5166C175.766 53.7284 176.16 52.7067 176.16 51.4369C176.16 50.167 175.781 49.1307 175.008 48.3572C174.249 47.569 173.272 47.1895 172.105 47.1895C170.938 47.1895 169.975 47.5836 169.216 48.3572C168.458 49.1453 168.079 50.167 168.079 51.4369C168.079 52.7067 168.458 53.743 169.216 54.5166C169.975 55.3048 170.938 55.6843 172.105 55.6843C173.272 55.6843 174.235 55.2902 175.008 54.5166Z" fill="black"/>
<path d="M190.296 44.46V47.4959C190.019 47.4521 189.771 47.4229 189.552 47.4229C188.312 47.4229 187.349 47.7878 186.649 48.503C185.949 49.2328 185.598 50.2691 185.598 51.6265V58.2238H182.418V44.6059H185.453V46.591C186.372 45.1752 187.976 44.46 190.296 44.46Z" fill="black"/>
<path d="M205.598 52.4439H194.92C195.11 53.451 195.591 54.2392 196.379 54.8231C197.167 55.4069 198.144 55.6988 199.326 55.6988C200.813 55.6988 202.053 55.2026 203.016 54.2246L204.723 56.1805C204.11 56.9103 203.337 57.4649 202.404 57.8444C201.47 58.2239 200.42 58.399 199.238 58.399C197.75 58.399 196.423 58.1071 195.285 57.5087C194.147 56.9103 193.272 56.0783 192.644 55.0274C192.017 53.9619 191.711 52.765 191.711 51.4222C191.711 50.094 192.017 48.8971 192.615 47.8462C193.213 46.7808 194.059 45.9488 195.124 45.365C196.189 44.7665 197.4 44.4746 198.742 44.4746C200.069 44.4746 201.251 44.7665 202.301 45.3504C203.352 45.9342 204.169 46.7662 204.752 47.8171C205.336 48.8826 205.627 50.1086 205.627 51.4952C205.657 51.7287 205.642 52.0353 205.598 52.4439ZM196.189 47.9192C195.489 48.5177 195.051 49.3204 194.905 50.3275H202.622C202.491 49.335 202.068 48.5468 201.368 47.9338C200.668 47.3208 199.807 47.0143 198.771 47.0143C197.75 47.0143 196.889 47.3208 196.189 47.9192Z" fill="black"/>
</svg>
