<svg width="235" height="82" viewBox="0 0 235 82" fill="none" xmlns="http://www.w3.org/2000/svg">
<path d="M217.777 74.0455H14.2696C10.0839 74.0455 6.68842 70.6593 6.68842 66.4849V15.9249C6.68842 11.7505 10.0839 8.36426 14.2696 8.36426H217.777C221.963 8.36426 225.358 11.7505 225.358 15.9249V66.4995C225.344 70.6593 221.948 74.0455 217.777 74.0455Z" fill="white"/>
<path d="M58.7471 40.5627L50.3609 35.7314L43.4529 42.3872L49.7609 48.4736L58.7471 43.2921C59.2447 43.0148 59.5374 42.4893 59.5374 41.9201C59.5374 41.3508 59.2447 40.84 58.7471 40.5627Z" fill="#FFD109"/>
<path d="M48.9266 34.9142L39.6916 29.5867L19.4506 19.2383L42.3114 41.2926L48.9266 34.9142Z" fill="#06EF79"/>
<path d="M19.7872 65.2005L39.7355 54.2391L48.3412 49.2911L42.3114 43.4819L19.7872 65.2005Z" fill="#F93646"/>
<path d="M18.1042 20.1284L18.0749 64.6603L41.1844 42.3871L18.1042 20.1284Z" fill="#05D5FB"/>
<path d="M217.558 9.4591C221.451 9.4591 224.612 12.6118 224.612 16.4943V66.3391C224.612 70.2216 221.451 73.3743 217.558 73.3743H14.255C10.362 73.3743 7.20068 70.2216 7.20068 66.3391V16.4943C7.20068 12.6118 10.362 9.4591 14.255 9.4591H217.558ZM217.558 7.99951H14.255C9.557 7.99951 5.73712 11.809 5.73712 16.4943V66.3391C5.73712 71.0243 9.557 74.8338 14.255 74.8338H217.558C222.256 74.8338 226.076 71.0243 226.076 66.3391V16.4943C226.076 11.809 222.256 7.99951 217.558 7.99951Z" fill="black"/>
<path d="M77.949 48.3718H81.0224V55.3194C80.1297 56.0346 79.0759 56.5746 77.8758 56.9687C76.6757 57.3482 75.4463 57.5379 74.173 57.5379C72.3875 57.5379 70.7775 57.1585 69.3579 56.3849C67.9236 55.6113 66.7967 54.5458 65.9917 53.1884C65.1721 51.831 64.7623 50.2838 64.7623 48.5761C64.7623 46.8684 65.1721 45.3358 65.9917 43.9638C66.8113 42.6064 67.9382 41.5409 69.3725 40.7673C70.8068 39.9937 72.4314 39.6143 74.2315 39.6143C75.6951 39.6143 77.0269 39.8624 78.227 40.344C79.4272 40.8257 80.437 41.5263 81.2566 42.4604L79.2076 44.4601C77.8758 43.1319 76.2659 42.4604 74.3925 42.4604C73.1631 42.4604 72.0655 42.7232 71.1142 43.234C70.1629 43.7449 69.4018 44.4747 68.8603 45.4088C68.3188 46.3429 68.0553 47.4084 68.0553 48.5907C68.0553 49.7584 68.3188 50.7947 68.8603 51.7288C69.4018 52.6629 70.1482 53.3927 71.1142 53.9182C72.0655 54.4436 73.1631 54.7209 74.3779 54.7209C75.739 54.7209 76.9391 54.429 77.9782 53.8306V48.3718H77.949Z" fill="black"/>
<path d="M87.345 56.5892C86.262 56.0054 85.4131 55.2026 84.813 54.1663C84.1984 53.13 83.9056 51.9478 83.9056 50.6341C83.9056 49.3205 84.213 48.1528 84.813 47.1165C85.4277 46.0802 86.262 45.2775 87.345 44.6936C88.428 44.1098 89.6428 43.8179 90.9893 43.8179C92.3504 43.8179 93.5798 44.1098 94.6628 44.6936C95.7458 45.2775 96.5947 46.0802 97.1947 47.1165C97.8094 48.1528 98.1021 49.3205 98.1021 50.6341C98.1021 51.9478 97.7948 53.1154 97.1947 54.1663C96.5801 55.2026 95.7458 56.02 94.6628 56.5892C93.5798 57.1731 92.3504 57.465 90.9893 57.465C89.6428 57.465 88.428 57.1731 87.345 56.5892ZM93.8286 53.6555C94.575 52.8965 94.9555 51.8894 94.9555 50.6341C94.9555 49.3935 94.575 48.3864 93.8286 47.6128C93.0821 46.8538 92.1308 46.4597 90.9746 46.4597C89.8184 46.4597 88.8817 46.8392 88.1353 47.6128C87.3889 48.3718 87.023 49.3789 87.023 50.6341C87.023 51.8748 87.3889 52.8819 88.1353 53.6555C88.8817 54.4145 89.8184 54.8085 90.9746 54.8085C92.1308 54.794 93.0821 54.4145 93.8286 53.6555Z" fill="black"/>
<path d="M103.459 56.5892C102.376 56.0054 101.527 55.2026 100.927 54.1663C100.312 53.13 100.019 51.9478 100.019 50.6341C100.019 49.3205 100.327 48.1528 100.927 47.1165C101.542 46.0802 102.376 45.2775 103.459 44.6936C104.542 44.1098 105.757 43.8179 107.103 43.8179C108.464 43.8179 109.694 44.1098 110.777 44.6936C111.86 45.2775 112.708 46.0802 113.309 47.1165C113.923 48.1528 114.216 49.3205 114.216 50.6341C114.216 51.9478 113.909 53.1154 113.309 54.1663C112.694 55.2026 111.86 56.02 110.777 56.5892C109.694 57.1731 108.464 57.465 107.103 57.465C105.757 57.465 104.542 57.1731 103.459 56.5892ZM109.942 53.6555C110.689 52.8965 111.069 51.8894 111.069 50.6341C111.069 49.3935 110.689 48.3864 109.942 47.6128C109.196 46.8538 108.245 46.4597 107.088 46.4597C105.932 46.4597 104.996 46.8392 104.249 47.6128C103.503 48.3718 103.137 49.3789 103.137 50.6341C103.137 51.8748 103.503 52.8819 104.249 53.6555C104.996 54.4145 105.932 54.8085 107.088 54.8085C108.245 54.794 109.196 54.4145 109.942 53.6555Z" fill="black"/>
<path d="M130.461 43.9785V55.2611C130.461 59.9464 128.061 62.2817 123.261 62.2817C121.973 62.2817 120.758 62.1212 119.616 61.8C118.46 61.4789 117.524 61.0119 116.762 60.3988L118.168 58.0635C118.753 58.5452 119.485 58.9247 120.377 59.2166C121.27 59.5085 122.178 59.6545 123.085 59.6545C124.549 59.6545 125.632 59.3188 126.305 58.6619C126.993 57.9905 127.329 56.9834 127.329 55.626V54.9254C126.802 55.5092 126.144 55.9471 125.383 56.239C124.622 56.5309 123.773 56.6915 122.866 56.6915C121.607 56.6915 120.451 56.4288 119.426 55.8887C118.402 55.3487 117.597 54.5897 116.997 53.6118C116.411 52.6339 116.104 51.51 116.104 50.2547C116.104 48.9995 116.397 47.8756 116.997 46.8977C117.582 45.9198 118.402 45.1754 119.426 44.6499C120.451 44.1245 121.592 43.8472 122.866 43.8472C123.831 43.8472 124.71 44.0077 125.5 44.3142C126.29 44.6353 126.949 45.117 127.49 45.7592V43.9931H130.461V43.9785ZM126.246 52.9842C127.007 52.2836 127.388 51.364 127.388 50.2255C127.388 49.1163 127.007 48.2113 126.246 47.5107C125.485 46.8101 124.519 46.4598 123.334 46.4598C122.134 46.4598 121.153 46.8101 120.392 47.5107C119.631 48.2113 119.251 49.1163 119.251 50.2255C119.251 51.3494 119.631 52.269 120.392 52.9842C121.153 53.6848 122.134 54.0497 123.334 54.0497C124.519 54.0497 125.485 53.6994 126.246 52.9842Z" fill="black"/>
<path d="M134.559 38.7969H137.677V57.2898H134.559V38.7969Z" fill="black"/>
<path d="M154.273 51.6267H143.809C143.999 52.6046 144.468 53.3782 145.243 53.962C146.019 54.5313 146.985 54.8232 148.126 54.8232C149.59 54.8232 150.805 54.3415 151.756 53.3782L153.425 55.2902C152.824 56.0054 152.063 56.5455 151.156 56.9104C150.234 57.2753 149.21 57.465 148.053 57.465C146.59 57.465 145.302 57.1731 144.175 56.5893C143.063 56.0054 142.199 55.2027 141.584 54.1664C140.97 53.1301 140.677 51.9478 140.677 50.6342C140.677 49.3351 140.97 48.1675 141.57 47.1312C142.155 46.0949 142.975 45.2775 144.029 44.7083C145.082 44.1244 146.253 43.8325 147.57 43.8325C148.873 43.8325 150.029 44.1244 151.054 44.6937C152.078 45.2629 152.883 46.0657 153.454 47.1166C154.025 48.1529 154.317 49.3497 154.317 50.7218C154.317 50.9261 154.303 51.2326 154.273 51.6267ZM145.038 47.2042C144.351 47.788 143.926 48.5762 143.78 49.5541H151.346C151.215 48.5908 150.805 47.8172 150.117 47.2188C149.429 46.6203 148.58 46.3284 147.57 46.3284C146.575 46.3284 145.726 46.6203 145.038 47.2042Z" fill="black"/>
<path d="M175.671 40.592C176.798 41.0883 177.661 41.8035 178.261 42.7376C178.861 43.6718 179.154 44.7665 179.154 46.0509C179.154 47.3061 178.861 48.4154 178.261 49.3495C177.661 50.2837 176.798 51.0135 175.671 51.5097C174.544 52.006 173.226 52.2541 171.704 52.2541H167.753V57.2897H164.504V39.8477H171.704C173.226 39.8477 174.544 40.0958 175.671 40.592ZM174.778 48.6197C175.51 48.0213 175.875 47.1602 175.875 46.0509C175.875 44.9416 175.51 44.0804 174.778 43.482C174.046 42.8836 172.978 42.5917 171.558 42.5917H167.767V49.5247H171.558C172.963 49.5101 174.046 49.2182 174.778 48.6197Z" fill="black"/>
<path d="M182.344 38.7969H185.462V57.2898H182.344V38.7969Z" fill="black"/>
<path d="M199.175 45.2337C200.214 46.1679 200.741 47.5836 200.741 49.4811V57.2753H197.8V55.6551C197.419 56.239 196.878 56.6769 196.16 56.9834C195.458 57.2899 194.594 57.4504 193.599 57.4504C192.604 57.4504 191.726 57.2753 190.979 56.9396C190.233 56.6039 189.648 56.1222 189.238 55.5238C188.828 54.9108 188.623 54.2393 188.623 53.4658C188.623 52.2689 189.062 51.3056 189.955 50.5904C190.848 49.8606 192.253 49.5103 194.17 49.5103H197.624V49.306C197.624 48.3718 197.346 47.6566 196.79 47.1604C196.234 46.6641 195.399 46.416 194.302 46.416C193.555 46.416 192.809 46.5327 192.092 46.7663C191.36 46.9998 190.76 47.3209 190.262 47.7442L189.033 45.4818C189.735 44.9564 190.57 44.5477 191.55 44.2558C192.531 43.9785 193.57 43.8325 194.668 43.8325C196.629 43.8325 198.136 44.2996 199.175 45.2337ZM196.321 54.6626C196.936 54.3123 197.36 53.8015 197.609 53.1301V51.5829H194.389C192.589 51.5829 191.697 52.1667 191.697 53.349C191.697 53.9182 191.916 54.3561 192.37 54.6918C192.823 55.0275 193.438 55.1881 194.243 55.1881C195.019 55.1881 195.721 55.0129 196.321 54.6626Z" fill="black"/>
<path d="M216.972 43.9785L210.723 58.3554C210.137 59.8004 209.435 60.8221 208.601 61.4059C207.766 61.9898 206.757 62.2963 205.571 62.2963C204.898 62.2963 204.254 62.1941 203.595 61.9752C202.951 61.7562 202.41 61.4643 202 61.0848L203.244 58.7933C203.537 59.0706 203.903 59.3041 204.312 59.4647C204.722 59.6253 205.132 59.7128 205.542 59.7128C206.098 59.7128 206.552 59.5669 206.903 59.2895C207.254 59.0122 207.591 58.5306 207.883 57.8738L208.103 57.3483L202.278 43.9931H205.527L209.728 53.8307L213.943 43.9931H216.972V43.9785Z" fill="black"/>
<path d="M70.3385 30.1562C69.636 30.1562 68.9774 30.0103 68.3627 29.7038C67.748 29.3972 67.2211 28.9886 66.7674 28.4631C66.3137 27.9523 65.9625 27.3684 65.7137 26.7116C65.4648 26.0694 65.3331 25.398 65.3331 24.6974C65.3331 23.9676 65.4648 23.2816 65.7137 22.6394C65.9625 21.9972 66.3137 21.4133 66.7674 20.9171C67.2211 20.4208 67.748 20.0267 68.3481 19.7348C68.9627 19.4429 69.6214 19.3115 70.3385 19.3115C71.3776 19.3115 72.2265 19.5305 72.9144 19.9537C73.5876 20.3916 74.0998 20.9463 74.4365 21.6469L73.3973 22.3766C73.09 21.749 72.6509 21.2966 72.1094 20.99C71.5679 20.6835 70.9678 20.5376 70.3092 20.5376C69.7677 20.5376 69.2701 20.6543 68.831 20.8879C68.392 21.1214 68.0114 21.4279 67.6895 21.8366C67.3675 22.2307 67.1333 22.6832 66.9577 23.1794C66.7967 23.6757 66.7089 24.2011 66.7089 24.7412C66.7089 25.3104 66.7967 25.8505 66.9869 26.3613C67.1772 26.8722 67.4407 27.31 67.7773 27.7041C68.1139 28.0982 68.5237 28.3901 68.9774 28.6091C69.4311 28.828 69.9141 28.9448 70.4409 28.9448C71.0556 28.9448 71.6411 28.7842 72.1972 28.4777C72.7534 28.1712 73.2802 27.6895 73.7632 27.0473V28.4485C72.8119 29.587 71.6557 30.1562 70.3385 30.1562ZM73.6022 25.7775H71.2898V24.7558H74.7438V30.0978H73.6022V25.7775Z" fill="black"/>
<path d="M84.1105 28.8862V30.0976H76.822V19.3843H83.9642V20.5957H78.1831V24.0549H83.2178V25.1788H78.1831V28.8716H84.1105V28.8862Z" fill="black"/>
<path d="M93.7115 20.5957H90.0087V30.0976H88.6476V20.5957H84.9448V19.3843H93.7115V20.5957Z" fill="black"/>
<path d="M98.6144 30.083V19.3843H99.9755V30.083H98.6144Z" fill="black"/>
<path d="M103.912 21.8948V30.0976H102.551V19.3843H103.693L110.25 27.7477V19.3989H111.611V30.083H110.367L103.912 21.8948Z" fill="black"/>
<path d="M122.353 30.1562C121.592 30.1562 120.919 30.0102 120.304 29.7037C119.69 29.3972 119.163 28.9885 118.709 28.4777C118.255 27.9668 117.919 27.383 117.67 26.7262C117.421 26.0839 117.304 25.4125 117.304 24.7265C117.304 24.0113 117.436 23.3253 117.685 22.6831C117.948 22.0409 118.299 21.4571 118.753 20.9462C119.207 20.4354 119.748 20.0413 120.363 19.7348C120.978 19.4428 121.651 19.2969 122.368 19.2969C123.129 19.2969 123.802 19.4574 124.417 19.7639C125.032 20.0705 125.558 20.4937 125.998 21.0192C126.437 21.5446 126.788 22.1285 127.022 22.7707C127.271 23.4129 127.388 24.0697 127.388 24.7411C127.388 25.4563 127.256 26.1423 127.007 26.7845C126.759 27.4268 126.407 28.0106 125.939 28.5214C125.485 29.0323 124.944 29.4264 124.329 29.7183C123.758 30.0248 123.085 30.1562 122.353 30.1562ZM118.694 24.7411C118.694 25.2812 118.782 25.8066 118.958 26.3175C119.133 26.8283 119.382 27.2808 119.704 27.6603C120.026 28.0544 120.421 28.3609 120.875 28.5944C121.329 28.828 121.826 28.9447 122.383 28.9447C122.953 28.9447 123.466 28.828 123.919 28.5798C124.373 28.3317 124.754 28.0106 125.076 27.6165C125.397 27.2078 125.632 26.7553 125.807 26.2591C125.968 25.7628 126.056 25.252 126.056 24.7411C126.056 24.2011 125.968 23.6756 125.793 23.1794C125.617 22.6831 125.368 22.2306 125.032 21.8366C124.71 21.4425 124.314 21.1214 123.861 20.9024C123.407 20.6835 122.909 20.5667 122.368 20.5667C121.797 20.5667 121.285 20.6835 120.831 20.917C120.377 21.1505 119.997 21.4717 119.675 21.8803C119.353 22.289 119.119 22.7269 118.943 23.2232C118.768 23.7048 118.694 24.2157 118.694 24.7411Z" fill="black"/>
<path d="M130.666 21.8948V30.0976H129.305V19.3843H130.447L137.003 27.7477V19.3989H138.365V30.083H137.121L130.666 21.8948Z" fill="black"/>
</svg>
