<svg width="65" height="64" viewBox="0 0 65 64" fill="none" xmlns="http://www.w3.org/2000/svg">
<g clip-path="url(#clip0_78_2800)">
<path d="M0.935547 49.3714C0.935547 37.6218 0.935547 26.0476 0.935547 14.298C0.935547 14.1226 0.935547 13.9472 1.11331 13.7719C2.00214 8.16012 5.20191 4.30204 10.5349 2.19764C11.6015 1.8469 12.8458 1.67154 14.0902 1.3208C26.0004 1.3208 37.7329 1.3208 49.6432 1.3208C49.821 1.3208 49.821 1.49617 49.9987 1.49617C55.865 2.19764 60.6646 6.23108 62.2645 11.8428C62.4423 12.7197 62.6201 13.4211 62.7978 14.298C62.7978 26.0476 62.7978 37.6218 62.7978 49.3714C62.7978 49.5468 62.62 49.7221 62.62 49.8975C61.7312 56.9122 55.6872 62.3486 48.3988 62.3486C37.1996 62.3486 26.1782 62.3486 14.979 62.3486C8.57945 62.3486 3.06873 58.1398 1.29108 52.0019C1.29108 51.1251 1.11331 50.2482 0.935547 49.3714ZM3.60202 31.8347C3.60202 37.6218 3.60202 43.2336 3.60202 49.0207C3.60202 55.1585 8.40168 59.8934 14.6235 59.8934C26.1782 59.8934 37.7329 59.8934 49.2877 59.8934C50.1765 59.8934 51.0653 59.7181 51.9541 59.5427C56.9316 58.3151 60.3091 54.1063 60.3091 49.0207C60.3091 44.4611 60.3091 39.9016 60.3091 35.1667C60.3091 28.3273 60.3091 21.488 60.3091 14.6487C60.3091 8.51086 55.5094 3.77594 49.1099 3.77594C37.7329 3.77594 26.1782 3.77594 14.8012 3.77594C14.0902 3.77594 13.2013 3.95131 12.4903 3.95131C7.15733 5.00351 3.60202 9.38769 3.60202 14.6487C3.42426 20.4358 3.60202 26.2229 3.60202 31.8347Z" fill="#3A3A3A"/>
<path d="M44.1327 37.7971C45.0216 37.7971 45.7326 37.9725 46.4437 38.3232C49.1102 39.5508 51.5989 40.9537 54.2653 42.1813C56.2208 43.2335 57.2873 44.8118 57.1096 47.0916C56.9318 49.0206 56.043 50.4236 54.4431 51.3004C52.4877 52.3526 50.71 53.2294 48.7546 54.1063C48.0436 54.457 47.1547 54.8077 46.4437 55.3338C43.0661 57.0875 38.9775 54.6324 38.9775 50.7743C38.9775 48.1438 38.9775 45.5133 38.9775 42.8828C38.9775 40.4276 40.7552 38.3232 43.2439 37.9725C43.4217 37.7971 43.7772 37.7971 44.1327 37.7971ZM41.4663 46.7408C41.4663 47.793 41.4663 48.8453 41.4663 50.0728C41.4663 50.2482 41.4663 50.5989 41.4663 50.7743C41.8218 52.8787 43.955 53.9309 45.9104 52.8787C48.2213 51.8265 50.3545 50.5989 52.6655 49.5467C53.732 49.0206 54.4431 47.9684 54.4431 46.7408C54.4431 45.5133 53.732 44.4611 52.6655 43.935C51.9544 43.5842 51.2433 43.2335 50.71 42.8828C49.1102 42.1813 47.5103 41.3045 45.9104 40.603C45.3771 40.2523 44.666 40.2523 43.955 40.2523C42.3551 40.603 41.2885 41.8306 41.2885 43.4089C41.4663 44.4611 41.4663 45.6886 41.4663 46.7408Z" fill="#3A3A3A"/>
<path d="M62.9758 46.7409C62.9758 55.5092 55.6875 62.6993 46.7992 62.6993C37.9109 62.6993 30.6226 55.5092 30.6226 46.7409C30.6226 37.9725 37.9109 30.7825 46.7992 30.7825C55.6875 30.7825 62.9758 37.9725 62.9758 46.7409ZM46.7992 33.413C39.3331 33.413 33.289 39.3755 33.289 46.7409C33.289 54.1063 39.3331 60.0688 46.7992 60.0688C54.2653 60.0688 60.3093 54.1063 60.3093 46.7409C60.3093 39.3755 54.2653 33.413 46.7992 33.413Z" fill="#3A3A3A"/>
<path d="M32.5776 23.0664C29.9111 26.0476 27.0669 29.0289 24.4004 31.8348C24.5781 32.0101 24.5781 32.0101 24.7559 32.1855C26.0003 33.4131 27.2446 34.6406 28.489 35.8682C28.6667 36.0436 28.8445 36.2189 28.8445 36.3943C29.0223 36.745 29.0223 37.0958 28.6667 37.4465C28.3112 37.7972 27.9557 37.7972 27.6002 37.6219C27.4224 37.4465 27.2446 37.2711 27.0669 37.2711C24.2226 34.4653 21.3784 31.6594 18.5341 28.8535C18.3564 28.6782 18.3564 28.5028 18.1786 28.3274C16.9342 29.3796 15.6899 30.4318 14.6233 31.484C11.068 34.6406 7.51269 37.7972 3.77962 40.7785C3.60185 40.9539 3.60185 40.9539 3.42409 40.9539C3.06856 41.3046 2.53526 41.1292 2.17973 40.7785C1.8242 40.4278 1.8242 39.9016 2.17973 39.5509C2.17973 39.3755 2.3575 39.3756 2.3575 39.3756C7.33492 35.1667 12.1346 30.7826 17.112 26.5737C17.8231 25.8723 18.1786 25.8723 18.8897 26.5737C20.134 27.8013 21.5561 29.2043 22.8005 30.4318C22.9783 30.2565 23.156 30.0811 23.3338 29.9057C26.0003 27.0998 28.6667 24.1186 31.3332 21.3127C32.0443 20.4359 32.3998 20.4359 33.2886 21.1374C36.6662 24.1186 40.0437 27.2752 43.4212 30.2565C43.599 30.4318 43.7768 30.6072 43.7768 30.7826C43.9545 31.1333 43.9545 31.484 43.599 31.8348C43.2435 32.1855 42.888 32.1855 42.5324 32.0101C42.3547 31.8348 42.1769 31.8348 41.9991 31.6594C38.7994 28.8535 35.7774 26.0476 32.5776 23.0664C32.7553 23.2418 32.7553 23.4171 32.5776 23.0664Z" fill="#3A3A3A"/>
<path d="M32.5776 23.0664C29.9111 26.0476 27.0669 29.0289 24.4004 31.8348C24.5781 32.0101 24.5781 32.0101 24.7559 32.1855C26.0003 33.4131 27.2446 34.6406 28.489 35.8682C28.6667 36.0436 28.8445 36.2189 28.8445 36.3943C29.0223 36.745 29.0223 37.0958 28.6667 37.4465C28.3112 37.7972 27.9557 37.7972 27.6002 37.6219C27.4224 37.4465 27.2446 37.2711 27.0669 37.2711C24.2226 34.4653 21.3784 31.6594 18.5341 28.8535C18.3564 28.6782 18.3564 28.5028 18.1786 28.3274C16.9342 29.3796 15.6899 30.4318 14.6233 31.484C11.068 34.6406 7.51269 37.7972 3.77962 40.7785C3.60185 40.9539 3.60185 40.9539 3.42409 40.9539C3.06856 41.3046 2.53526 41.1292 2.17973 40.7785C1.8242 40.4278 1.8242 39.9017 2.17973 39.5509C2.17973 39.3755 2.3575 39.3756 2.3575 39.3756C7.33492 35.1667 12.1346 30.7826 17.112 26.5737C17.8231 25.8723 18.1786 25.8723 18.8897 26.5737C20.134 27.8013 21.5561 29.2043 22.8005 30.4318C22.9783 30.2565 23.156 30.0811 23.3338 29.9057C26.0003 27.0998 28.6667 24.1186 31.3332 21.3127C32.0443 20.4359 32.3998 20.4359 33.2886 21.1374C36.6662 24.1186 40.0437 27.2752 43.4212 30.2565C43.599 30.4318 43.7768 30.6072 43.7768 30.7826C43.9545 31.1333 43.9545 31.484 43.599 31.8348C43.2435 32.1855 42.888 32.1855 42.5324 32.0101C42.3547 31.8348 42.1769 31.8348 41.9991 31.6594C38.7994 28.8535 35.7774 26.0476 32.5776 23.0664C32.7553 23.4171 32.7553 23.2418 32.5776 23.0664Z" stroke="#3A3A3A" stroke-width="0.5" stroke-miterlimit="10"/>
<path d="M11.0678 25.5215C8.40128 25.5215 6.09033 23.2417 6.09033 20.6112C6.09033 17.9807 8.40128 15.7009 11.0678 15.7009C13.7342 15.7009 16.0452 17.9807 16.0452 20.6112C16.0452 23.2417 13.7342 25.5215 11.0678 25.5215ZM11.0678 17.4546C9.29011 17.4546 7.86798 18.8575 7.86798 20.6112C7.86798 22.3649 9.29011 23.7678 11.0678 23.7678C12.8454 23.7678 14.2675 22.3649 14.2675 20.6112C14.2675 18.8575 12.8454 17.4546 11.0678 17.4546Z" fill="#3A3A3A" stroke="#3A3A3A" stroke-width="0.5" stroke-miterlimit="10"/>
</g>
<defs>
<clipPath id="clip0_78_2800">
<rect width="64.351" height="62.7815" fill="white" transform="translate(0.224609 0.443848)"/>
</clipPath>
</defs>
</svg>
