<svg width="29" height="35" viewBox="0 0 29 35" fill="none" xmlns="http://www.w3.org/2000/svg">
<path fill-rule="evenodd" clip-rule="evenodd" d="M0.192829 6.74642V11.9469H12.8426C14.9626 12.7855 15.6983 13.5407 15.6537 15.7418C15.302 17.5866 14.5826 18.1384 12.8426 18.6934H0.192829V22.2073L12.8426 34.4354H18.0431L5.25274 22.2073H12.8426C16.6803 21.3224 18.3118 20.2298 19.027 15.7418C18.7096 11.6495 17.5692 9.9732 12.8426 8.71417H3.285V6.74642C2.93786 5.96244 2.65755 5.62026 1.73891 5.48145C0.629676 5.74245 0.392723 6.0675 0.192829 6.74642ZM0 27.4342V34.412H6.69871L0 27.4342Z" fill="white"/>
<rect x="1.03662" y="13.0718" width="2.24885" height="1.40553" fill="#6E7D45"/>
<rect x="1.03662" y="16.1641" width="2.24885" height="1.40553" fill="#6E7D45"/>
<rect x="5.53369" y="13.0718" width="2.24885" height="1.40553" fill="#6E7D45"/>
<rect x="5.53369" y="16.1641" width="2.24885" height="1.40553" fill="#6E7D45"/>
<rect x="10.0327" y="13.0718" width="2.24885" height="1.40553" fill="#6E7D45"/>
<rect x="10.0327" y="16.1641" width="2.24885" height="1.40553" fill="#6E7D45"/>
<path d="M16.0757 7.87161L16.6379 5.06055C21.8619 6.88328 23.5954 8.76861 23.2439 14.6182L20.2923 14.1965C20.5053 10.6523 19.73 9.18214 16.0757 7.87161Z" fill="#6E7D45"/>
<path d="M24.931 14.8986C24.9534 8.45011 23.232 5.90484 16.9194 3.37328L17.7628 0C25.7742 2.84493 28.472 5.90966 28.3042 15.4609L24.931 14.8986Z" fill="#6E7D45"/>
</svg>
