<?xml version="1.0" encoding="utf-8"?>
<!-- Generator: Adobe Illustrator 22.0.1, SVG Export Plug-In . SVG Version: 6.00 Build 0)  -->
<svg version="1.1" id="Layer_1" xmlns="http://www.w3.org/2000/svg" xmlns:xlink="http://www.w3.org/1999/xlink" x="0px" y="0px"
	 viewBox="0 0 26.3 21.1" style="enable-background:new 0 0 26.3 21.1;" xml:space="preserve">
<style type="text/css">
	.st0{fill:#3A3A3A;}
</style>
<g>
	<path class="st0" d="M25.3,13.9c-0.1,0.7-0.3,1.3-0.7,1.9c-1,1.6-2.5,2.5-4.4,2.5c-3.2,0-6.4,0-9.6,0c-0.4,0-0.6,0.1-0.9,0.4
		c-0.6,0.6-1.2,1.2-1.8,1.8c-0.4,0.4-0.8,0.4-1.2,0c-0.7-0.7-1.4-1.4-2.2-2.2c-0.1-0.1-0.2-0.2-0.3-0.2c-1.9-0.7-3-2-3.3-4
		c0,0,0-0.1,0-0.1c0-3,0-6,0-9c0-0.1,0-0.1,0-0.2c0.4-2.4,2.5-4.2,4.9-4.2c4.9,0,9.8,0,14.7,0c1.8,0,3.1,0.9,4.1,2.3
		C25,3.5,25.2,4.2,25.3,5C25.3,8,25.3,10.9,25.3,13.9z M13.2,1.7c-2.3,0-4.7,0-7,0c-0.3,0-0.6,0-0.8,0.1c-1.8,0.3-3,1.8-3,3.8
		c0,2.6,0,5.3,0,7.9c0,1.7,1,3.1,2.6,3.6c0.2,0.1,0.4,0.2,0.5,0.3c0.6,0.6,1.2,1.2,1.8,1.8c0.1,0.1,0.2,0.2,0.4,0
		c0.5-0.5,1-1,1.5-1.6c0.3-0.3,0.6-0.5,1.1-0.5c3.5,0,6.9,0,10.4,0c1.4,0,2.4-0.7,3-2c0.3-0.6,0.4-1.2,0.4-1.9c0-2.2,0-4.4,0-6.6
		c0-0.5,0-1,0-1.5c-0.1-1.2-0.7-2.2-1.7-2.8c-0.6-0.4-1.3-0.6-2.1-0.6C17.9,1.7,15.5,1.7,13.2,1.7z"/>
	<g>
		<path class="st0" d="M17.1,9.2H9.2C9,9.2,8.8,9,8.8,8.7v0c0-0.3,0.2-0.5,0.5-0.5h7.8c0.3,0,0.5,0.2,0.5,0.5v0
			C17.5,9,17.3,9.2,17.1,9.2z"/>
		<path class="st0" d="M17.1,6.2H9.2C9,6.2,8.8,6,8.8,5.7v0c0-0.3,0.2-0.5,0.5-0.5l7.8,0c0.3,0,0.5,0.2,0.5,0.5v0
			C17.5,6,17.3,6.2,17.1,6.2z"/>
		<path class="st0" d="M17.1,12.1H9.2c-0.3,0-0.5-0.2-0.5-0.5v0c0-0.3,0.2-0.5,0.5-0.5h7.8c0.3,0,0.5,0.2,0.5,0.5v0
			C17.5,11.9,17.3,12.1,17.1,12.1z"/>
	</g>
</g>
</svg>
