<?xml version="1.0" encoding="utf-8"?>
<!-- Generator: Adobe Illustrator 22.0.1, SVG Export Plug-In . SVG Version: 6.00 Build 0)  -->
<svg version="1.1" id="Layer_1" xmlns="http://www.w3.org/2000/svg" xmlns:xlink="http://www.w3.org/1999/xlink" x="0px" y="0px"
	 viewBox="0 0 26.3 21.1" style="enable-background:new 0 0 26.3 21.1;" xml:space="preserve">
<style type="text/css">
	.st0{fill:#EF3333;}
</style>
<g>
	<path class="st0" d="M13.3,3.4c0.5-0.4,1-0.9,1.5-1.3c2.7-2.2,6.6-2.1,8.9,0.4c2,2.1,2.4,4.6,1.4,7.3c-0.6,1.7-1.6,3.1-2.8,4.4
		c-2.2,2.4-4.7,4.3-7.4,6c-1,0.7-2.2,0.7-3.2,0c-2.9-1.8-5.5-3.9-7.8-6.5C2.9,12.4,2,11,1.5,9.3C0.5,6.2,1.9,2.1,5.6,0.9
		c2.6-0.9,4.9-0.2,6.9,1.6C12.8,2.8,13.1,3.1,13.3,3.4z"/>
</g>
</svg>
