<?xml version="1.0" encoding="utf-8"?>
<!-- Generator: Adobe Illustrator 22.0.1, SVG Export Plug-In . SVG Version: 6.00 Build 0)  -->
<svg version="1.1" id="Layer_1" xmlns="http://www.w3.org/2000/svg" xmlns:xlink="http://www.w3.org/1999/xlink" x="0px" y="0px"
	 viewBox="0 0 26.3 21.1" style="enable-background:new 0 0 26.3 21.1;" xml:space="preserve">
<style type="text/css">
	.st0{fill:#3A3A3A;}
</style>
<g>
	<path class="st0" d="M13.3,3.4c0.5-0.4,1-0.9,1.5-1.3c2.7-2.2,6.6-2.1,8.9,0.4c2,2.1,2.4,4.6,1.4,7.3c-0.6,1.7-1.6,3.1-2.8,4.4
		c-2.2,2.4-4.7,4.3-7.4,6c-1,0.7-2.2,0.7-3.2,0c-2.9-1.8-5.5-3.9-7.8-6.5C2.9,12.4,2,11,1.5,9.3C0.5,6.2,1.9,2.1,5.6,0.9
		c2.6-0.9,4.9-0.2,6.9,1.6C12.8,2.8,13.1,3.1,13.3,3.4z M2.6,7.3C2.6,8,2.7,8.7,3,9.4c0.6,1.5,1.5,2.7,2.6,3.9c2,2.2,4.4,4,6.9,5.6
		c0.7,0.4,1.3,0.4,2,0c1.6-1.1,3.2-2.2,4.7-3.5c1.5-1.3,2.9-2.7,3.9-4.3c0.9-1.4,1.4-2.9,1.2-4.7c-0.6-4-4.9-5.9-8.2-3.5
		c-0.8,0.5-1.4,1.2-1.9,2c0,0.1-0.1,0.1-0.1,0.2c-0.3,0.5-0.9,0.6-1.3,0c-0.5-0.7-1-1.4-1.7-2C9.3,1.6,6.9,1.4,5,2.7
		C3.3,3.8,2.7,5.4,2.6,7.3z"/>
</g>
</svg>
