<?xml version="1.0" encoding="utf-8"?>
<!-- Generator: Adobe Illustrator 22.0.1, SVG Export Plug-In . SVG Version: 6.00 Build 0)  -->
<svg version="1.1" id="Layer_1" xmlns="http://www.w3.org/2000/svg" xmlns:xlink="http://www.w3.org/1999/xlink" x="0px" y="0px"
	 viewBox="0 0 16 22" style="enable-background:new 0 0 16 22;" xml:space="preserve">
<style type="text/css">
	.st0{fill:#3A3A3A;}
</style>
<g>
	<path class="st0" d="M15.2,11.1c0,2.7,0,5.5,0,8.2c0,1.1-0.7,1.9-1.7,2.1c-0.6,0.1-1.1,0-1.6-0.3c-1.2-0.8-2.4-1.5-3.5-2.3
		c-0.2-0.1-0.3-0.1-0.4,0c-1.2,0.8-2.4,1.6-3.6,2.3c-0.8,0.5-1.9,0.4-2.6-0.2C1.3,20.5,1.1,20,1,19.4c0-0.1,0-0.2,0-0.4
		C1,13.7,1,8.3,1,2.9c0-1.1,0.7-2,1.8-2.2c0.1,0,0.3,0,0.4,0c3.2,0,6.5,0,9.7,0c1.3,0,2.2,0.9,2.2,2.2C15.2,5.6,15.2,8.4,15.2,11.1z
		 M2.4,11.1c0,2.7,0,5.5,0,8.2c0,0.3,0.1,0.6,0.4,0.7c0.3,0.2,0.5,0.1,0.8-0.1c1.3-0.9,2.6-1.7,4-2.6c0.4-0.2,0.7-0.2,1.1,0
		c1.3,0.9,2.6,1.7,4,2.6C12.7,20,12.8,20,13,20c0.5,0.1,0.8-0.3,0.8-0.8c0-5.4,0-10.9,0-16.3c0-0.6-0.3-0.9-0.9-0.9
		c-3.2,0-6.4,0-9.6,0c-0.6,0-0.9,0.3-0.9,0.9C2.4,5.6,2.4,8.3,2.4,11.1z"/>
	<path class="st0" d="M8.1,7.2c-0.6,0-1.2,0-1.9,0C5.9,7.2,5.6,7,5.5,6.6C5.4,6.3,5.6,6,5.9,5.9c0.1,0,0.2-0.1,0.4-0.1
		c1.2,0,2.5,0,3.7,0c0.4,0,0.7,0.2,0.7,0.5c0.1,0.3-0.1,0.6-0.3,0.8c-0.1,0.1-0.3,0.1-0.4,0.1C9.3,7.2,8.7,7.2,8.1,7.2z"/>
</g>
</svg>
