<?xml version="1.0" encoding="utf-8"?>
<!-- Generator: Adobe Illustrator 22.0.1, SVG Export Plug-In . SVG Version: 6.00 Build 0)  -->
<svg version="1.1" id="Layer_1" xmlns="http://www.w3.org/2000/svg" xmlns:xlink="http://www.w3.org/1999/xlink" x="0px" y="0px"
	 viewBox="0 0 21.6 21.1" style="enable-background:new 0 0 21.6 21.1;" xml:space="preserve">
<style type="text/css">
	.st0{fill:#3A3A3A;}
</style>
<g>
	<path class="st0" d="M21.1,2.8C21.1,3,21,3.3,20.9,3.5c-1.8,5.3-3.5,10.6-5.3,15.9c-0.3,0.9-0.9,1.5-1.9,1.5
		c-1,0.1-1.7-0.3-2.2-1.2c-1.1-2-2.2-3.9-3.2-5.9c-0.1-0.3-0.3-0.4-0.6-0.6c-2-1-3.9-2.1-5.8-3.2C1,9.6,0.5,8.8,0.6,7.9
		c0.1-1,0.7-1.6,1.6-1.9c4-1.4,8.1-2.7,12.1-4c1.3-0.4,2.5-0.8,3.8-1.3C19.6,0.1,21.1,1.2,21.1,2.8z M18.4,2.1
		C18.4,2.1,18.4,2,18.4,2.1c-0.1,0-0.2,0-0.3,0c-3.5,1.2-7.1,2.4-10.6,3.5C5.9,6.2,4.3,6.7,2.7,7.3C2.2,7.4,2,7.7,2,8.1
		c0,0.3,0.2,0.5,0.5,0.7c1.4,0.7,2.7,1.5,4.1,2.2c0.6,0.3,1.2,0.7,1.8,1C11.8,8.7,15.1,5.4,18.4,2.1z M19.5,3.1
		C19.5,3.1,19.5,3.1,19.5,3.1c-3.3,3.3-6.6,6.6-10,10c0.3,0.5,0.6,1.2,0.9,1.8c0.7,1.4,1.5,2.7,2.2,4.1c0.2,0.3,0.4,0.5,0.8,0.5
		c0.5,0,0.6-0.3,0.8-0.7c1.5-4.6,3.1-9.2,4.6-13.8C19.1,4.4,19.3,3.7,19.5,3.1z"/>
</g>
</svg>
