<svg width="27" height="22" viewBox="0 0 27 22" fill="none" xmlns="http://www.w3.org/2000/svg">
<path d="M25.3 13.9001C25.2 14.6001 25 15.2001 24.6 15.8001C23.6 17.4001 22.1 18.3001 20.2 18.3001C17 18.3001 13.8 18.3001 10.6 18.3001C10.2 18.3001 10 18.4001 9.70002 18.7001C9.10002 19.3001 8.50002 19.9001 7.90002 20.5001C7.50002 20.9001 7.10002 20.9001 6.70002 20.5001C6.00002 19.8001 5.30002 19.1001 4.50002 18.3001C4.40002 18.2001 4.30002 18.1001 4.20002 18.1001C2.30002 17.4001 1.20002 16.1001 0.900024 14.1001V14.0001C0.900024 11.0001 0.900024 8.0001 0.900024 5.0001C0.900024 4.9001 0.900024 4.9001 0.900024 4.8001C1.30002 2.4001 3.40002 0.600098 5.80002 0.600098C10.7 0.600098 15.6 0.600098 20.5 0.600098C22.3 0.600098 23.6 1.5001 24.6 2.9001C25 3.5001 25.2 4.2001 25.3 5.0001C25.3 8.0001 25.3 10.9001 25.3 13.9001ZM13.2 1.7001C10.9 1.7001 8.50002 1.7001 6.20002 1.7001C5.90002 1.7001 5.60002 1.7001 5.40002 1.8001C3.60002 2.1001 2.40002 3.6001 2.40002 5.6001C2.40002 8.2001 2.40002 10.9001 2.40002 13.5001C2.40002 15.2001 3.40002 16.6001 5.00002 17.1001C5.20002 17.2001 5.40002 17.3001 5.50002 17.4001C6.10002 18.0001 6.70002 18.6001 7.30002 19.2001C7.40002 19.3001 7.50002 19.4001 7.70002 19.2001C8.20002 18.7001 8.70002 18.2001 9.20002 17.6001C9.50002 17.3001 9.80002 17.1001 10.3 17.1001C13.8 17.1001 17.2 17.1001 20.7 17.1001C22.1 17.1001 23.1 16.4001 23.7 15.1001C24 14.5001 24.1 13.9001 24.1 13.2001C24.1 11.0001 24.1 8.8001 24.1 6.6001C24.1 6.1001 24.1 5.6001 24.1 5.1001C24 3.9001 23.4 2.9001 22.4 2.3001C21.8 1.9001 21.1 1.7001 20.3 1.7001C17.9 1.7001 15.5 1.7001 13.2 1.7001Z" fill="#3A3A3A"/>
<path d="M17.1 9.2002H9.20005C9.00005 9.2002 8.80005 9.0002 8.80005 8.7002C8.80005 8.4002 9.00005 8.2002 9.30005 8.2002H17.1C17.4 8.2002 17.6 8.4002 17.6 8.7002C17.5 9.0002 17.3 9.2002 17.1 9.2002Z" fill="#3A3A3A"/>
<path d="M17.1 6.2002H9.20005C9.00005 6.2002 8.80005 6.0002 8.80005 5.7002C8.80005 5.4002 9.00005 5.2002 9.30005 5.2002H17.1C17.4 5.2002 17.6 5.4002 17.6 5.7002C17.5 6.0002 17.3 6.2002 17.1 6.2002Z" fill="#3A3A3A"/>
<path d="M17.1001 12.1001H9.20007C8.90007 12.1001 8.70007 11.9001 8.70007 11.6001C8.70007 11.3001 8.90007 11.1001 9.20007 11.1001H17.0001C17.3001 11.1001 17.5001 11.3001 17.5001 11.6001C17.5001 11.9001 17.3001 12.1001 17.1001 12.1001Z" fill="#3A3A3A"/>
</svg>
