<svg width="27" height="22" viewBox="0 0 27 22" fill="none" xmlns="http://www.w3.org/2000/svg">
<path d="M13.3001 3.39992C13.8001 2.99992 14.3001 2.49992 14.8001 2.09992C17.5001 -0.100083 21.4001 -8.28505e-05 23.7001 2.49992C25.7001 4.59992 26.1001 7.09992 25.1001 9.79992C24.5001 11.4999 23.5001 12.8999 22.3001 14.1999C20.1001 16.5999 17.6001 18.4999 14.9001 20.1999C13.9001 20.8999 12.7001 20.8999 11.7001 20.1999C8.80006 18.3999 6.20006 16.2999 3.90006 13.6999C2.90006 12.3999 2.00006 10.9999 1.50006 9.29992C0.500056 6.19992 1.90006 2.09992 5.60006 0.899917C8.20006 -8.29101e-05 10.5001 0.699917 12.5001 2.49992C12.8001 2.79992 13.1001 3.09992 13.3001 3.39992ZM2.60006 7.29992C2.60006 7.99992 2.70006 8.69992 3.00006 9.39992C3.60006 10.8999 4.50006 12.0999 5.60006 13.2999C7.60006 15.4999 10.0001 17.2999 12.5001 18.8999C13.2001 19.2999 13.8001 19.2999 14.5001 18.8999C16.1001 17.7999 17.7001 16.6999 19.2001 15.3999C20.7001 14.0999 22.1001 12.6999 23.1001 11.0999C24.0001 9.69992 24.5001 8.19992 24.3001 6.39992C23.7001 2.39992 19.4001 0.499917 16.1001 2.89992C15.3001 3.39992 14.7001 4.09992 14.2001 4.89992C14.2001 4.99992 14.1001 4.99992 14.1001 5.09992C13.8001 5.59992 13.2001 5.69992 12.8001 5.09992C12.3001 4.39992 11.8001 3.69992 11.1001 3.09992C9.30006 1.59992 6.90006 1.39992 5.00006 2.69992C3.30006 3.79992 2.70006 5.39992 2.60006 7.29992Z" fill="#3A3A3A"/>
</svg>
