<svg width="27" height="22" viewBox="0 0 27 22" fill="none" xmlns="http://www.w3.org/2000/svg">
<path d="M13.2999 3.39992C13.7999 2.99992 14.2999 2.49992 14.7999 2.09992C17.4999 -0.100083 21.3999 -8.28505e-05 23.6999 2.49992C25.6999 4.59992 26.0999 7.09992 25.0999 9.79992C24.4999 11.4999 23.4999 12.8999 22.2999 14.1999C20.0999 16.5999 17.5999 18.4999 14.8999 20.1999C13.8999 20.8999 12.6999 20.8999 11.6999 20.1999C8.79993 18.3999 6.19993 16.2999 3.89993 13.6999C2.89993 12.3999 1.99993 10.9999 1.49993 9.29992C0.499934 6.19992 1.89993 2.09992 5.59993 0.899917C8.19993 -8.29101e-05 10.4999 0.699917 12.4999 2.49992C12.7999 2.79992 13.0999 3.09992 13.2999 3.39992Z" fill="#EF3333"/>
</svg>
