<svg width="16" height="22" viewBox="0 0 16 22" fill="none" xmlns="http://www.w3.org/2000/svg">
<path d="M15.2 11.1C15.2 13.8 15.2 16.5999 15.2 19.2999C15.2 20.4 14.5 21.1999 13.5 21.4C12.9 21.5 12.4 21.4 11.9 21.1C10.7 20.3 9.5 19.5999 8.4 18.7999C8.2 18.6999 8.1 18.6999 8 18.7999C6.8 19.5999 5.6 20.4 4.4 21.1C3.6 21.6 2.5 21.5 1.8 20.9C1.3 20.5 1.1 20 1 19.4C1 19.2999 1 19.2 1 19C1 13.7 1 8.29995 1 2.89995C1 1.79995 1.7 0.899951 2.8 0.699951C2.9 0.699951 3.1 0.699951 3.2 0.699951C6.4 0.699951 9.7 0.699951 12.9 0.699951C14.2 0.699951 15.1 1.59995 15.1 2.89995C15.2 5.59995 15.2 8.39995 15.2 11.1ZM2.4 11.1C2.4 13.8 2.4 16.5999 2.4 19.2999C2.4 19.5999 2.5 19.9 2.8 20C3.1 20.2 3.3 20.1 3.6 19.9C4.9 19 6.2 18.1999 7.6 17.2999C8 17.0999 8.3 17.0999 8.7 17.2999C10 18.1999 11.3 19 12.7 19.9C12.7 20 12.8 20 13 20C13.5 20.1 13.8 19.7 13.8 19.2C13.8 13.8 13.8 8.29995 13.8 2.89995C13.8 2.29995 13.5 1.99995 12.9 1.99995C9.7 1.99995 6.5 1.99995 3.3 1.99995C2.7 1.99995 2.4 2.29995 2.4 2.89995C2.4 5.59995 2.4 8.29995 2.4 11.1Z" fill="#3A3A3A"/>
<path d="M8.10001 7.20005C7.50001 7.20005 6.90001 7.20005 6.20001 7.20005C5.90001 7.20005 5.60001 7.00005 5.50001 6.60005C5.40001 6.30005 5.60001 6.00005 5.90001 5.90005C6.00001 5.90005 6.10001 5.80005 6.30001 5.80005C7.50001 5.80005 8.80001 5.80005 10 5.80005C10.4 5.80005 10.7 6.00005 10.7 6.30005C10.8 6.60005 10.6 6.90005 10.4 7.10005C10.3 7.20005 10.1 7.20005 10 7.20005C9.30001 7.20005 8.70001 7.20005 8.10001 7.20005Z" fill="#3A3A3A"/>
</svg>
