<svg width="22" height="22" viewBox="0 0 22 22" fill="none" xmlns="http://www.w3.org/2000/svg">
<g clip-path="url(#clip0_74_471)">
<path d="M21.1 2.80006C21.1 3.00006 21 3.30006 20.9 3.50006C19.1 8.80006 17.4 14.1001 15.6 19.4001C15.3 20.3001 14.7 20.9001 13.7 20.9001C12.7 21.0001 12 20.6001 11.5 19.7001C10.4 17.7001 9.30002 15.8001 8.30002 13.8001C8.20002 13.5001 8.00002 13.4001 7.70002 13.2001C5.70002 12.2001 3.80002 11.1001 1.90002 10.0001C1.00002 9.60006 0.500021 8.80006 0.600021 7.90006C0.700021 6.90006 1.30002 6.30006 2.20002 6.00006C6.20002 4.60006 10.3 3.30006 14.3 2.00006C15.6 1.60006 16.8 1.20006 18.1 0.70006C19.6 0.10006 21.1 1.20006 21.1 2.80006ZM18.4 2.10006C18.4 2.10006 18.4 2.00006 18.4 2.10006C18.3 2.10006 18.2 2.10006 18.1 2.10006C14.6 3.30006 11 4.50006 7.50002 5.60006C5.90002 6.20006 4.30002 6.70006 2.70002 7.30006C2.20002 7.40006 2.00002 7.70006 2.00002 8.10006C2.00002 8.40006 2.20002 8.60006 2.50002 8.80006C3.90002 9.50006 5.20002 10.3001 6.60002 11.0001C7.20002 11.3001 7.80002 11.7001 8.40002 12.0001C11.8 8.70006 15.1 5.40006 18.4 2.10006ZM19.5 3.10006C16.2 6.40006 12.9 9.70006 9.50002 13.1001C9.80002 13.6001 10.1 14.3001 10.4 14.9001C11.1 16.3001 11.9 17.6001 12.6 19.0001C12.8 19.3001 13 19.5001 13.4 19.5001C13.9 19.5001 14 19.2001 14.2 18.8001C15.7 14.2001 17.3 9.60006 18.8 5.00006C19.1 4.40006 19.3 3.70006 19.5 3.10006Z" fill="#3A3A3A"/>
</g>
<defs>
<clipPath id="clip0_74_471">
<rect width="21.6" height="21.1" fill="white"/>
</clipPath>
</defs>
</svg>
