<?xml version="1.0" encoding="utf-8"?>
<!-- Generator: Adobe Illustrator 22.0.1, SVG Export Plug-In . SVG Version: 6.00 Build 0)  -->
<svg version="1.1" id="Layer_1" xmlns="http://www.w3.org/2000/svg" xmlns:xlink="http://www.w3.org/1999/xlink" x="0px" y="0px"
	 viewBox="0 0 31.8 31.5" style="enable-background:new 0 0 31.8 31.5;" xml:space="preserve">
<style type="text/css">
	.st0{opacity:0.2;fill:#C9C9C9;}
	.st1{fill:#3A3A3A;}
</style>
<g>
	<g id="zoom_in_2_">
		<circle class="st0" cx="15.9" cy="15.8" r="14.9"/>
	</g>
	<g>
		<g>
			<path class="st1" d="M20.3,14.8c0,1.3,0,2.7,0,4c0,0.9-0.5,1.3-1.3,1.3c-2.7,0-5.4,0-8,0c-0.9,0-1.3-0.4-1.3-1.3
				c0-2.7,0-5.4,0-8.1c0-0.8,0.5-1.3,1.3-1.3c2.7,0,5.4,0,8.1,0c0.9,0,1.3,0.5,1.3,1.3C20.3,12.1,20.3,13.5,20.3,14.8z M10.4,14.7
				c0,1.2,0,2.5,0,3.7c0,0.7,0.1,0.8,0.8,0.8c2.5,0,5,0,7.4,0c0.7,0,0.8-0.1,0.8-0.8c0-2.5,0-5,0-7.5c0-0.7-0.1-0.8-0.7-0.8
				c-2.5,0-5,0-7.5,0c-0.6,0-0.7,0.1-0.7,0.8C10.4,12.3,10.4,13.5,10.4,14.7z"/>
			<path class="st1" d="M22.3,16.7c0,1.4,0,2.7,0,4.1c0,0.8-0.5,1.3-1.3,1.3c-2.7,0-5.5,0-8.2,0c-0.4,0-0.8-0.1-1-0.5
				c-0.2-0.2-0.2-0.5,0-0.7c0.2-0.2,0.4-0.2,0.6,0c0.2,0.2,0.4,0.2,0.7,0.2c2.5,0,5.1,0,7.6,0c0.6,0,0.7-0.1,0.7-0.7
				c0-2.5,0-5.1,0-7.6c0-0.3,0-0.5-0.2-0.7c-0.2-0.2-0.2-0.4,0-0.6c0.2-0.2,0.4-0.2,0.7,0c0.3,0.3,0.5,0.6,0.5,1
				C22.3,13.9,22.3,15.3,22.3,16.7z"/>
		</g>
		<path class="st1" d="M14.9,16.5L14.9,16.5c-0.1,0-0.2-0.1-0.2-0.2v-3c0-0.1,0.1-0.2,0.2-0.2l0,0c0.1,0,0.2,0.1,0.2,0.2v3
			C15.1,16.4,15,16.5,14.9,16.5z"/>
		<path class="st1" d="M16.6,14.8L16.6,14.8c0,0.1-0.1,0.2-0.2,0.2h-3c-0.1,0-0.2-0.1-0.2-0.2v0c0-0.1,0.1-0.2,0.2-0.2h3
			C16.5,14.6,16.6,14.7,16.6,14.8z"/>
	</g>
</g>
</svg>
