<?xml version="1.0" encoding="utf-8"?>
<!-- Generator: Adobe Illustrator 22.0.1, SVG Export Plug-In . SVG Version: 6.00 Build 0)  -->
<svg version="1.1" id="Layer_1" xmlns="http://www.w3.org/2000/svg" xmlns:xlink="http://www.w3.org/1999/xlink" x="0px" y="0px"
	 viewBox="0 0 5.3 9.5" style="enable-background:new 0 0 5.3 9.5;" xml:space="preserve">
<style type="text/css">
	.st0{fill:#3A3A3A;}
</style>
<g>
	<g>
		<path class="st0" d="M1.1,4.8C1.8,5.4,2.4,6.1,3,6.7C3.7,7.3,4.3,8,4.9,8.6C5.1,8.7,5.1,8.9,5,9.1C4.9,9.2,4.8,9.3,4.6,9.3
			c-0.1,0-0.2-0.1-0.3-0.2C3.2,8,2.2,6.9,1.1,5.8C0.9,5.6,0.6,5.4,0.4,5.2c-0.3-0.3-0.3-0.4,0-0.7c0.9-0.9,1.9-1.9,2.8-2.8
			C3.6,1.2,4,0.9,4.3,0.5c0.2-0.2,0.4-0.2,0.6-0.1C5.1,0.6,5.1,0.8,4.9,1C3.7,2.2,2.5,3.4,1.3,4.6C1.2,4.7,1.2,4.7,1.1,4.8z"/>
	</g>
</g>
</svg>
