<?xml version="1.0" encoding="utf-8"?>
<!-- Generator: Adobe Illustrator 22.0.1, SVG Export Plug-In . SVG Version: 6.00 Build 0)  -->
<svg version="1.1" id="Layer_1" xmlns="http://www.w3.org/2000/svg" xmlns:xlink="http://www.w3.org/1999/xlink" x="0px" y="0px"
	 viewBox="0 0 31.8 31.5" style="enable-background:new 0 0 31.8 31.5;" xml:space="preserve">
<style type="text/css">
	.st0{opacity:0.2;fill:#C9C9C9;}
	.st1{fill:#3A3A3A;stroke:#3A3A3A;stroke-width:0.5;stroke-miterlimit:10;}
</style>
<g>
	<g id="zoom_in_1_">
		<circle class="st0" cx="16.1" cy="15.8" r="14.9"/>
	</g>
	<g>
		<path class="st1" d="M12.3,20.1c0,0.7,0,1.3,0,1.9c0,0.1,0,0.2,0,0.3c0,0.1-0.2,0.2-0.2,0.2c-0.1,0-0.2-0.1-0.3-0.2
			c0-0.1,0-0.2,0-0.3c0-0.6,0-1.3,0-2c-0.1,0-0.2,0-0.3,0c-0.6,0-1.1,0-1.7,0c0,0-0.1,0-0.1,0c-0.2,0-0.4-0.1-0.4-0.3
			c0-0.2,0.2-0.3,0.4-0.3c0.6,0,1.2,0,1.8,0c0.1,0,0.2,0,0.3,0c0-0.1,0-0.2,0-0.3c0-2.4,0-4.9,0-7.3c0-0.5,0-0.5,0.5-0.5
			c2.4,0,4.9,0,7.3,0c0.1,0,0.2,0,0.3,0c0-0.2,0-0.5,0-0.7c0-0.5,0-1,0-1.5c0-0.2,0.1-0.3,0.3-0.3c0.2,0,0.3,0.1,0.3,0.3
			c0,0.6,0,1.2,0,1.8c0,0.1,0,0.2,0,0.3c0.5,0,1,0,1.5,0c0.2,0,0.4,0,0.6,0c0.2,0,0.3,0.1,0.3,0.3c0,0.2-0.1,0.3-0.3,0.3
			c-0.6,0-1.2,0-1.8,0c-0.1,0-0.2,0-0.3,0c0,0.2,0,0.3,0,0.5c0,2.4,0,4.8,0,7.2c0,0.4-0.1,0.5-0.5,0.5c-2.4,0-4.9,0-7.3,0
			C12.5,20.1,12.4,20.1,12.3,20.1z M12.3,12c0,2.5,0,5,0,7.6c2.5,0,5,0,7.6,0c0-2.5,0-5,0-7.6C17.3,12,14.8,12,12.3,12z"/>
	</g>
</g>
</svg>
