<?xml version="1.0" encoding="utf-8"?>
<!-- Generator: Adobe Illustrator 22.0.1, SVG Export Plug-In . SVG Version: 6.00 Build 0)  -->
<svg version="1.1" id="Layer_1" xmlns="http://www.w3.org/2000/svg" xmlns:xlink="http://www.w3.org/1999/xlink" x="0px" y="0px"
	 viewBox="0 0 36.2 35.8" style="enable-background:new 0 0 36.2 35.8;" xml:space="preserve">
<style type="text/css">
	.st0{fill:#3A3A3A;}
	.st1{fill:#3A3A3A;stroke:#3A3A3A;stroke-width:0.5;stroke-miterlimit:10;}
</style>
<g>
	<g>
		<path class="st0" d="M0.4,27.9c0-6.7,0-13.3,0-20c0-0.1,0-0.2,0.1-0.3C1,4.4,2.8,2.2,5.8,1c0.6-0.2,1.3-0.3,2-0.5
			c6.7,0,13.3,0,20,0c0.1,0,0.1,0.1,0.2,0.1c3.3,0.4,6,2.7,6.9,5.9c0.1,0.5,0.2,0.9,0.3,1.4c0,6.7,0,13.3,0,20
			c0,0.1-0.1,0.2-0.1,0.3c-0.5,4-3.9,7.1-8,7.1c-6.3,0-12.5,0-18.8,0c-3.6,0-6.7-2.4-7.7-5.9C0.6,28.9,0.5,28.4,0.4,27.9z M1.9,17.9
			c0,3.3,0,6.5,0,9.8c0,3.5,2.7,6.2,6.2,6.2c6.5,0,13,0,19.5,0c0.5,0,1-0.1,1.5-0.2c2.8-0.7,4.7-3.1,4.7-6c0-2.6,0-5.2,0-7.9
			c0-3.9,0-7.8,0-11.7c0-3.5-2.7-6.2-6.3-6.2c-6.4,0-12.9,0-19.3,0C7.8,1.9,7.3,2,6.9,2c-3,0.6-5,3.1-5,6.1
			C1.8,11.4,1.9,14.7,1.9,17.9z"/>
		<path class="st0" d="M24.7,21.3c0.5,0,0.9,0.1,1.3,0.3c1.5,0.7,2.9,1.5,4.4,2.2c1.1,0.6,1.7,1.5,1.6,2.8c-0.1,1.1-0.6,1.9-1.5,2.4
			c-1.1,0.6-2.1,1.1-3.2,1.6c-0.4,0.2-0.9,0.4-1.3,0.7c-1.9,1-4.2-0.4-4.2-2.6c0-1.5,0-3,0-4.5c0-1.4,1-2.6,2.4-2.8
			C24.3,21.3,24.5,21.3,24.7,21.3z M23.2,26.4c0,0.6,0,1.2,0,1.9c0,0.1,0,0.3,0,0.4c0.2,1.2,1.4,1.8,2.5,1.2
			c1.3-0.6,2.5-1.3,3.8-1.9c0.6-0.3,1-0.9,1-1.6c0-0.7-0.4-1.3-1-1.6c-0.4-0.2-0.8-0.4-1.1-0.6c-0.9-0.4-1.8-0.9-2.7-1.3
			c-0.3-0.2-0.7-0.2-1.1-0.2c-0.9,0.2-1.5,0.9-1.5,1.8C23.2,25.1,23.2,25.8,23.2,26.4z"/>
		<path class="st0" d="M35.3,26.4c0,5-4.1,9.1-9.1,9.1s-9.1-4.1-9.1-9.1s4.1-9.1,9.1-9.1S35.3,21.4,35.3,26.4z M26.2,18.8
			c-4.2,0-7.6,3.4-7.6,7.6S22,34,26.2,34s7.6-3.4,7.6-7.6S30.4,18.8,26.2,18.8z"/>
		<g>
			<path class="st1" d="M18.2,12.9c-1.5,1.7-3.1,3.4-4.6,5c0.1,0.1,0.1,0.1,0.2,0.2c0.7,0.7,1.4,1.4,2.1,2.1
				c0.1,0.1,0.2,0.2,0.2,0.3c0.1,0.2,0.1,0.4-0.1,0.6c-0.2,0.2-0.4,0.2-0.6,0.1c-0.1-0.1-0.2-0.2-0.3-0.2c-1.6-1.6-3.2-3.2-4.8-4.8
				c-0.1-0.1-0.1-0.2-0.2-0.3c-0.7,0.6-1.4,1.2-2,1.8c-2,1.8-4,3.6-6.1,5.3c-0.1,0.1-0.1,0.1-0.2,0.1c-0.2,0.2-0.5,0.1-0.7-0.1
				c-0.2-0.2-0.2-0.5,0-0.7c0-0.1,0.1-0.1,0.1-0.1c2.8-2.4,5.5-4.9,8.3-7.3c0.4-0.4,0.6-0.4,1,0c0.7,0.7,1.5,1.5,2.2,2.2
				c0.1-0.1,0.2-0.2,0.3-0.3c1.5-1.6,3-3.3,4.5-4.9c0.4-0.5,0.6-0.5,1.1-0.1c1.9,1.7,3.8,3.5,5.7,5.2c0.1,0.1,0.2,0.2,0.2,0.3
				c0.1,0.2,0.1,0.4-0.1,0.6c-0.2,0.2-0.4,0.2-0.6,0.1c-0.1-0.1-0.2-0.1-0.3-0.2c-1.8-1.6-3.5-3.2-5.3-4.9
				C18.3,13.1,18.3,13,18.2,12.9z"/>
			<path class="st1" d="M6.1,14.3c-1.5,0-2.8-1.3-2.8-2.8c0-1.5,1.3-2.8,2.8-2.8c1.5,0,2.8,1.3,2.8,2.8C8.9,13,7.6,14.3,6.1,14.3z
				 M6.1,9.7c-1,0-1.8,0.8-1.8,1.8c0,1,0.8,1.8,1.8,1.8c1,0,1.8-0.8,1.8-1.8C7.9,10.5,7.1,9.7,6.1,9.7z"/>
		</g>
	</g>
</g>
</svg>
