<?xml version="1.0" encoding="utf-8"?>
<!-- Generator: Adobe Illustrator 22.0.1, SVG Export Plug-In . SVG Version: 6.00 Build 0)  -->
<svg version="1.1" id="Layer_1" xmlns="http://www.w3.org/2000/svg" xmlns:xlink="http://www.w3.org/1999/xlink" x="0px" y="0px"
	 viewBox="0 0 31.8 31.5" style="enable-background:new 0 0 31.8 31.5;" xml:space="preserve">
<style type="text/css">
	.st0{opacity:0.2;fill:#C9C9C9;}
	.st1{fill:#3A3A3A;}
</style>
<g id="zoom_oout">
	<circle class="st0" cx="16.1" cy="15.8" r="14.9"/>
	<g>
		<g>
			<path class="st1" d="M19,18.1c1.2,1.2,2.3,2.4,3.5,3.6c0.1,0.1,0.1,0.1,0.2,0.2c0.2,0.2,0.2,0.4,0,0.6c-0.2,0.2-0.4,0.2-0.6,0
				c-0.2-0.2-0.4-0.4-0.6-0.7c-1-1.1-2-2.1-3-3.1c-3.2,2.2-6.6,0.9-8.1-1.3C8.7,15.1,9,12,11.2,10.1c2.1-1.9,5.4-1.9,7.5,0
				C20.7,11.9,21.4,15.4,19,18.1z M10.2,14.3c0,2.6,2.1,4.7,4.7,4.7c2.6,0,4.8-2.1,4.7-4.7c0-2.6-2.1-4.7-4.7-4.7
				C12.3,9.5,10.2,11.7,10.2,14.3z"/>
			<path class="st1" d="M16.6,13.8c-1.1,0-2.2,0-3.3,0c-0.1,0-0.4,0-0.5,0.2c-0.1,0.2-0.1,0.4,0,0.6c0.1,0.2,0.4,0.2,0.5,0.2
				c1.1,0,2.2,0,3.3,0c0.1,0,0.4,0,0.5-0.2c0.1-0.2,0.1-0.4,0-0.6C16.9,13.8,16.7,13.8,16.6,13.8z"/>
		</g>
	</g>
</g>
</svg>
