<?xml version="1.0" encoding="utf-8"?>
<!-- Generator: Adobe Illustrator 22.0.1, SVG Export Plug-In . SVG Version: 6.00 Build 0)  -->
<svg version="1.1" id="Layer_1" xmlns="http://www.w3.org/2000/svg" xmlns:xlink="http://www.w3.org/1999/xlink" x="0px" y="0px"
	 viewBox="0 0 32.8 31" style="enable-background:new 0 0 32.8 31;" xml:space="preserve">
<style type="text/css">
	.st0{fill:url(#SVGID_1_);stroke:url(#SVGID_2_);stroke-miterlimit:10;}
	.st1{fill:url(#SVGID_3_);}
	.st2{fill:url(#SVGID_4_);}
</style>
<g>
	<linearGradient id="SVGID_1_" gradientUnits="userSpaceOnUse" x1="15.8569" y1="29.9124" x2="15.8569" y2="1.725">
		<stop  offset="0" style="stop-color:#009EE9"/>
		<stop  offset="0.2586" style="stop-color:#009EE9"/>
		<stop  offset="1" style="stop-color:#00C3BA"/>
	</linearGradient>
	<linearGradient id="SVGID_2_" gradientUnits="userSpaceOnUse" x1="15.8569" y1="30.4124" x2="15.8569" y2="1.225">
		<stop  offset="0" style="stop-color:#009EE9"/>
		<stop  offset="0.2586" style="stop-color:#009EE9"/>
		<stop  offset="1" style="stop-color:#00C3BA"/>
	</linearGradient>
	<path class="st0" d="M19.8,2.3c3.9,1.2,6.2,3.6,6.7,4.2c0.2,0.2,2.7,3.1,3.3,6.9c0.3,2.1,0.1,4.3,0,4.6c0,0.4-0.1,0.8-0.1,1
		c-0.3,1.2-0.7,2.3-1.3,3.4c-0.2,0.3-0.2,0.6-0.1,0.9c0.5,1.6,1,3.2,1.5,4.7c0,0.1,0.1,0.3,0.1,0.4s0.1,0.4,0,0.7
		c-0.1,0.4-0.4,0.6-0.7,0.7c-0.4,0.1-0.8,0-1-0.1c-1.7-0.5-3.3-1.1-5-1.6c-0.3-0.1-0.5-0.1-0.7,0.1c-2.3,1.3-4.9,1.8-7.5,1.7
		c-2.3-0.2-4.3-0.7-6.1-1.7c-0.5-0.3-2.6-1.5-4.4-4.1c-0.7-1-3.1-4.7-2.7-9.5c0.1-1.3,0.4-2.3,0.6-2.9C3.3,9,4.7,6.8,6.5,5.2
		C6.7,5.1,7,4.8,7.4,4.5c2.7-2,5.3-2.5,6-2.6C14.2,1.8,16.7,1.4,19.8,2.3z M6.5,7.4c-1.9,2.1-3,4.5-3.2,7.3
		c-0.3,3.2,0.5,6.1,2.4,8.7s4.5,4.3,7.7,5c3.1,0.6,6,0.2,8.7-1.4c0.1-0.1,0.3-0.2,0.4-0.2c0.4-0.3,0.8-0.3,1.3-0.1
		c1.3,0.4,2.5,0.8,3.8,1.2c0.1,0,0.2,0.1,0.3,0c0.1-0.1,0-0.2,0-0.3c-0.4-1.3-0.8-2.5-1.2-3.8c-0.2-0.5-0.1-0.9,0.1-1.3
		c0.9-1.5,1.5-3.1,1.7-4.8c0.4-3.2-0.2-6.2-2.1-8.9c-1.6-2.4-3.8-4-6.6-4.9c-1.2-0.4-2.6-0.6-3.7-0.6C12.1,3.2,9,4.6,6.5,7.4z"/>
	<g>
		<linearGradient id="SVGID_3_" gradientUnits="userSpaceOnUse" x1="15.7" y1="19.4" x2="15.7" y2="17.2">
			<stop  offset="0" style="stop-color:#009EE9"/>
			<stop  offset="0.2586" style="stop-color:#009EE9"/>
			<stop  offset="1" style="stop-color:#00C3BA"/>
		</linearGradient>
		<path class="st1" d="M10.9,19.4h9.6c0.4,0,0.7-0.3,0.7-0.7v-0.8c0-0.4-0.3-0.7-0.7-0.7h-9.6c-0.4,0-0.7,0.3-0.7,0.7v0.8
			C10.2,19.1,10.5,19.4,10.9,19.4z"/>
		<linearGradient id="SVGID_4_" gradientUnits="userSpaceOnUse" x1="15.7" y1="14.5" x2="15.7" y2="12.3">
			<stop  offset="0" style="stop-color:#009EE9"/>
			<stop  offset="0.2586" style="stop-color:#009EE9"/>
			<stop  offset="1" style="stop-color:#00C3BA"/>
		</linearGradient>
		<path class="st2" d="M10.9,14.5h9.6c0.4,0,0.7-0.3,0.7-0.7V13c0-0.4-0.3-0.7-0.7-0.7h-9.6c-0.4,0-0.7,0.3-0.7,0.7v0.8
			C10.2,14.2,10.5,14.5,10.9,14.5z"/>
	</g>
</g>
</svg>
