<?xml version="1.0" encoding="utf-8"?>
<!-- Generator: Adobe Illustrator 22.0.1, SVG Export Plug-In . SVG Version: 6.00 Build 0)  -->
<svg version="1.1" id="Layer_1" xmlns="http://www.w3.org/2000/svg" xmlns:xlink="http://www.w3.org/1999/xlink" x="0px" y="0px"
	 viewBox="0 0 29.5 29.8" style="enable-background:new 0 0 29.5 29.8;" xml:space="preserve">
<style type="text/css">
	.st0{fill:url(#SVGID_1_);stroke:url(#SVGID_2_);stroke-width:0.5;stroke-miterlimit:10;}
	.st1{fill:url(#SVGID_3_);stroke:url(#SVGID_4_);stroke-width:0.5;stroke-miterlimit:10;}
</style>
<g>
	<g>
		<linearGradient id="SVGID_1_" gradientUnits="userSpaceOnUse" x1="14.75" y1="29.4079" x2="14.75" y2="14.281">
			<stop  offset="0" style="stop-color:#009EE9"/>
			<stop  offset="0.2586" style="stop-color:#009EE9"/>
			<stop  offset="1" style="stop-color:#00C3BA"/>
		</linearGradient>
		<linearGradient id="SVGID_2_" gradientUnits="userSpaceOnUse" x1="14.75" y1="29.6579" x2="14.75" y2="14.031">
			<stop  offset="0" style="stop-color:#009EE9"/>
			<stop  offset="0.2586" style="stop-color:#009EE9"/>
			<stop  offset="1" style="stop-color:#00C3BA"/>
		</linearGradient>
		<path class="st0" d="M26.3,26.1h-1.9c0,0.4,0,0.7,0,1.1c0,0.4,0,0.4-0.4,0.4c-3.1,0-6.2,0-9.3,0c-3.1,0-6.2,0-9.3,0
			c-0.4,0-0.4,0-0.4-0.4c0-1.8,0-3.5,0-5.3c0-2.6,1.8-5.1,4.6-5.6c0.4-0.1,0.8-0.1,1.2-0.1c2.6,0,5.2,0,7.8,0c2.8,0,5.3,2,5.8,5
			c0,0.3,0,0.5,0,0.8h1.9c0-0.5,0-0.9-0.1-1.4c-0.6-3.5-3.8-6.2-7.3-6.2c-2.7,0-5.5,0-8.2,0c-0.3,0-0.7,0-1,0.1
			C5.8,15,3.1,18.3,3.2,22c0,2.1,0,4.2,0,6.3v0c0,0.6,0.5,1.1,1.1,1.1h20.9c0.6,0,1.1-0.5,1.1-1.1c0,0,0,0,0,0
			C26.3,27.6,26.3,26.8,26.3,26.1z"/>
		<linearGradient id="SVGID_3_" gradientUnits="userSpaceOnUse" x1="14.5542" y1="13.9443" x2="14.5542" y2="0.3921">
			<stop  offset="0" style="stop-color:#009EE9"/>
			<stop  offset="0.2586" style="stop-color:#009EE9"/>
			<stop  offset="1" style="stop-color:#00C3BA"/>
		</linearGradient>
		<linearGradient id="SVGID_4_" gradientUnits="userSpaceOnUse" x1="14.5542" y1="14.1943" x2="14.5542" y2="0.1421">
			<stop  offset="0" style="stop-color:#009EE9"/>
			<stop  offset="0.2586" style="stop-color:#009EE9"/>
			<stop  offset="1" style="stop-color:#00C3BA"/>
		</linearGradient>
		<path class="st1" d="M15.4,0.4c1.5,0.2,2.8,1,2.8,1c1.5,0.9,2.1,2.1,2.3,2.4c0.4,0.8,0.7,1.6,0.8,2.6c0.4,3.6-2.1,6.8-5.6,7.4
			c-3.6,0.6-7.2-1.9-7.8-5.5c-0.6-3.7,1.9-7.2,5.7-7.8c0,0,0,0,0,0C13.6,0.5,14.4,0.3,15.4,0.4z M19.4,7.2c0.1-2.5-2-4.9-4.9-4.9
			c-3,0-4.9,2.5-4.9,4.9c0,2.4,1.9,4.9,4.9,4.9C17.5,12.1,19.5,9.7,19.4,7.2z"/>
	</g>
</g>
</svg>
