<?xml version="1.0" encoding="utf-8"?>
<!-- Generator: Adobe Illustrator 22.0.1, SVG Export Plug-In . SVG Version: 6.00 Build 0)  -->
<svg version="1.1" id="Layer_1" xmlns="http://www.w3.org/2000/svg" xmlns:xlink="http://www.w3.org/1999/xlink" x="0px" y="0px"
	 viewBox="0 0 32.8 31" style="enable-background:new 0 0 32.8 31;" xml:space="preserve">
<style type="text/css">
	.st0{fill:url(#SVGID_1_);stroke:url(#SVGID_2_);stroke-width:0.5;stroke-miterlimit:10;}
	.st1{fill:url(#SVGID_3_);stroke:url(#SVGID_4_);stroke-width:0.5;stroke-miterlimit:10;}
	.st2{fill:url(#SVGID_5_);stroke:url(#SVGID_6_);stroke-width:0.5;stroke-miterlimit:10;}
</style>
<g>
	<g>
		
			<linearGradient id="SVGID_1_" gradientUnits="userSpaceOnUse" x1="16.2939" y1="1.9328" x2="16.2939" y2="31.1236" gradientTransform="matrix(1 0 0 -1 0 32.02)">
			<stop  offset="0" style="stop-color:#009EE9"/>
			<stop  offset="0.2586" style="stop-color:#009EE9"/>
			<stop  offset="1" style="stop-color:#00C3BA"/>
		</linearGradient>
		
			<linearGradient id="SVGID_2_" gradientUnits="userSpaceOnUse" x1="16.2939" y1="1.6828" x2="16.2939" y2="31.3736" gradientTransform="matrix(1 0 0 -1 0 32.02)">
			<stop  offset="0" style="stop-color:#009EE9"/>
			<stop  offset="0.2586" style="stop-color:#009EE9"/>
			<stop  offset="1" style="stop-color:#00C3BA"/>
		</linearGradient>
		<path class="st0" d="M15.3,1C16,0.9,17,0.8,18.2,1.1c0,0,0.3,0.1,0.6,0.1c6.4,1.2,11.1,7.3,9.9,14.2c-0.8,4.9-3.7,8.1-8.3,9.9
			c-0.2,0.1-0.3,0.2-0.5,0.4c-0.8,1.2-1.7,2.5-2.5,3.7c-0.2,0.3-0.4,0.6-0.8,0.7c-0.2,0-0.4,0.1-0.7,0c-0.4-0.1-0.7-0.5-0.8-0.7
			c-0.8-1.2-1.6-2.4-2.5-3.6c-0.1-0.2-0.3-0.3-0.5-0.4c-5-1.9-7.8-5.6-8.4-10.9c0-2.3,0.4-4.3,1.3-6.3C5.8,6.5,6.9,5.1,8.2,4
			c0.3-0.2,2.1-1.8,4.7-2.6C14.1,1.1,15,1,15.3,1z M16.4,2.4c-0.7,0-1.4,0.1-2.2,0.2C8.6,3.8,4.7,9.1,5.6,15
			c0.7,4.5,3.4,7.4,7.7,8.8c0.4,0.1,0.7,0.3,0.9,0.7c0.6,1,1.3,1.9,1.9,2.9c0.2,0.3,0.2,0.3,0.4,0c0.6-0.9,1.3-1.9,1.9-2.8
			c0.3-0.4,0.6-0.6,1-0.8c5.2-1.6,8.5-6.6,7.6-12.1C26.4,6.3,21.9,2.5,16.4,2.4z"/>
		
			<linearGradient id="SVGID_3_" gradientUnits="userSpaceOnUse" x1="16.4" y1="13.0021" x2="16.4" y2="20.7063" gradientTransform="matrix(1 0 0 -1 0 32.02)">
			<stop  offset="0" style="stop-color:#009EE9"/>
			<stop  offset="0.2586" style="stop-color:#009EE9"/>
			<stop  offset="1" style="stop-color:#00C3BA"/>
		</linearGradient>
		
			<linearGradient id="SVGID_4_" gradientUnits="userSpaceOnUse" x1="16.4" y1="12.7521" x2="16.4" y2="20.9563" gradientTransform="matrix(1 0 0 -1 0 32.02)">
			<stop  offset="0" style="stop-color:#009EE9"/>
			<stop  offset="0.2586" style="stop-color:#009EE9"/>
			<stop  offset="1" style="stop-color:#00C3BA"/>
		</linearGradient>
		<path class="st1" d="M17.7,15.1c0,1,0,1.9,0,2.9c0,0.4-0.2,0.6-0.5,0.8c-0.4,0.2-0.8,0.2-1.3,0.1c-0.6-0.2-0.8-0.4-0.8-1
			c0-1.9,0-3.7,0-5.6c0-0.6,0.2-0.9,0.8-1c0.4-0.1,0.9-0.1,1.3,0.1c0.3,0.1,0.5,0.4,0.5,0.7C17.7,13.2,17.7,14.2,17.7,15.1z"/>
		
			<linearGradient id="SVGID_5_" gradientUnits="userSpaceOnUse" x1="16.375" y1="22.1234" x2="16.375" y2="24.4832" gradientTransform="matrix(1 0 0 -1 0 32.02)">
			<stop  offset="0" style="stop-color:#009EE9"/>
			<stop  offset="0.2586" style="stop-color:#009EE9"/>
			<stop  offset="1" style="stop-color:#00C3BA"/>
		</linearGradient>
		
			<linearGradient id="SVGID_6_" gradientUnits="userSpaceOnUse" x1="16.375" y1="21.8734" x2="16.375" y2="24.7332" gradientTransform="matrix(1 0 0 -1 0 32.02)">
			<stop  offset="0" style="stop-color:#009EE9"/>
			<stop  offset="0.2586" style="stop-color:#009EE9"/>
			<stop  offset="1" style="stop-color:#00C3BA"/>
		</linearGradient>
		<path class="st2" d="M16.4,9.9c-0.3,0-0.6-0.1-0.9-0.3c-0.6-0.5-0.6-1.3,0-1.8c0.4-0.3,0.7-0.3,1.2-0.2c0.6,0.2,1,0.6,1,1.2
			c0,0.6-0.6,1-1.2,1.1H16.4z"/>
	</g>
</g>
</svg>
