<?xml version="1.0" encoding="utf-8"?>
<!-- Generator: Adobe Illustrator 22.0.1, SVG Export Plug-In . SVG Version: 6.00 Build 0)  -->
<svg version="1.1" id="Layer_1" xmlns="http://www.w3.org/2000/svg" xmlns:xlink="http://www.w3.org/1999/xlink" x="0px" y="0px"
	 viewBox="0 0 22.8 26.7" style="enable-background:new 0 0 22.8 26.7;" xml:space="preserve">
<style type="text/css">
	.st0{fill:#3A3A3A;}
</style>
<path class="st0" d="M19.7,16.6c-0.3,0-0.4,0-0.4-0.4V12c0-0.4,0-0.8-0.1-1.2c-0.4-3-2-5.1-4.6-6.4c-0.3-0.2-0.5-0.3-0.5-0.8
	c0-1.5-1.2-2.7-2.7-2.6v0c0,0,0,0-0.1,0c0,0,0,0-0.1,0v0c-1.5,0-2.7,1.1-2.7,2.6c0,0.5-0.2,0.6-0.5,0.8c-2.6,1.3-4.2,3.4-4.6,6.4
	c-0.1,0.4-0.1,0.8-0.1,1.2v4.2c0,0.4-0.1,0.4-0.4,0.4c-1.5,0.1-2.7,1.3-2.7,2.7c0,1.7,1.3,2.8,2.7,2.8h4.5c0.2,0,0.3,0,0.3,0.2
	c0.1,0.3,0.3,1.2,1,1.9c0.9,0.9,2,1,2.5,1v0c0,0,0,0,0,0c0,0,0,0,0,0s0,0,0,0c0,0,0,0,0,0v0c0.5,0,1.6-0.1,2.5-1
	c0.7-0.7,0.9-1.6,1-1.9c0-0.2,0.1-0.2,0.3-0.2h4.5c1.4,0,2.7-1.1,2.7-2.8C22.4,17.9,21.2,16.7,19.7,16.6z M11.3,2.2
	c0.6,0,1.1,0.5,1.1,1c0,0.2,0,0.2-0.2,0.2h-0.8h-0.2h-0.8c-0.2,0-0.2,0-0.2-0.2C10.3,2.7,10.7,2.2,11.3,2.2z M13.1,22.1
	c-0.2,0.8-1,1.3-1.8,1.3c-0.8,0-1.6-0.5-1.8-1.3c-0.1-0.2,0-0.2,0.2-0.2h1.5h0.2h1.5C13.1,21.9,13.2,21.9,13.1,22.1z M19.9,20.3
	h-8.5v0c0,0-0.1,0-0.1,0c0,0,0,0-0.1,0v0H2.8c-0.6-0.1-1-0.7-0.9-1.3c0.1-0.5,0.6-0.9,1.2-0.9C4.3,18,5,17.3,5,16.1v-4.4
	c0-1.3,0.3-2.5,1-3.6c1.2-1.9,3.3-2.9,5.4-2.9c2.1-0.1,4.1,0.9,5.4,2.9c0.7,1.1,1,2.3,1,3.6v4.4c0,1.2,0.7,1.9,1.9,2
	c0.6,0,1.1,0.4,1.2,0.9C20.9,19.6,20.5,20.2,19.9,20.3z"/>
</svg>
