<?xml version="1.0" encoding="utf-8"?>
<!-- Generator: Adobe Illustrator 22.0.1, SVG Export Plug-In . SVG Version: 6.00 Build 0)  -->
<svg version="1.1" id="Layer_1" xmlns="http://www.w3.org/2000/svg" xmlns:xlink="http://www.w3.org/1999/xlink" x="0px" y="0px"
	 viewBox="0 0 14.9 14.9" style="enable-background:new 0 0 14.9 14.9;" xml:space="preserve">
<style type="text/css">
	.st0{fill:#FFFFFF;}
</style>
<g>
	<g>
		<path class="st0" d="M3.7,1.9c2.7-2.1,6.5-1.9,8.9,0.5c2.4,2.4,2.6,6.3,0.4,8.9c-2.2,2.7-6.4,3.4-9.4,1c0,0-0.1,0.1-0.1,0.1
			c-0.6,0.6-1.2,1.2-1.8,1.8c-0.1,0.1-0.2,0.2-0.3,0.2c-0.3,0.1-0.7,0-0.8-0.2c-0.2-0.3-0.2-0.6,0.1-0.9c0.5-0.5,0.9-0.9,1.4-1.4
			c0.2-0.2,0.4-0.4,0.6-0.6C0.2,8.3,0.9,4.1,3.7,1.9z M7.9,1.9C5,1.9,2.6,4.2,2.6,7.1c0,2.9,2.3,5.3,5.2,5.3c2.9,0,5.3-2.3,5.3-5.2
			C13.1,4.3,10.7,1.9,7.9,1.9z"/>
	</g>
</g>
</svg>
