<?xml version="1.0" encoding="utf-8"?>
<!-- Generator: Adobe Illustrator 22.0.1, SVG Export Plug-In . SVG Version: 6.00 Build 0)  -->
<svg version="1.1" id="Layer_1" xmlns="http://www.w3.org/2000/svg" xmlns:xlink="http://www.w3.org/1999/xlink" x="0px" y="0px"
	 viewBox="0 0 32.8 29.8" style="enable-background:new 0 0 32.8 29.8;" xml:space="preserve">
<style type="text/css">
	.st0{fill:#3A3A3A;stroke:#3A3A3A;stroke-miterlimit:10;}
</style>
<g>
	<g>
		<path class="st0" d="M6.2,16.9c-0.4-0.1-0.8-0.1-1.3-0.2c0-0.1,0-0.1,0-0.2c0.1-1.3,0.4-2.5,1-3.6c0.7-1.4,1.6-2.7,2.8-3.7
			C9,8.9,9.1,8.6,8.9,8.4C8.7,8.2,8.4,8.2,8.1,8.5c-0.3,0.3-0.7,0.6-1,0.9c-1.9,2.1-2.9,4.5-3.2,7.3c0,0.2-0.1,0.4-0.3,0.4
			c-0.6,0.2-1.1,0.6-1.5,1c-0.5,0.5-0.8,1.1-1,1.6c-0.1,0.4-0.3,1.2-0.2,2.1c0.3,1.9,1.8,2.9,1.9,3c0.9,0.6,1.9,0.8,3,0.7
			c2.1-0.3,3.7-2.1,3.8-4.1C9.7,19.3,8.3,17.4,6.2,16.9z M4.7,23.9c-1.2-0.2-2.3-1.3-2.4-2.6c-0.1-1.4,0.8-2.5,1.8-3
			c0.7-0.3,1.4-0.1,1.6-0.1c1.1,0.3,2.1,1.3,2.2,2.6C8,22.5,6.4,24.2,4.7,23.9z"/>
		<path class="st0" d="M30.6,18.7c-1-1.6-2.9-2.2-4.6-1.8c-2.5,0.6-3.9,3.3-3.4,5.4c0.2,0.9,0.7,1.6,1.4,2.2v0.1
			c-2.5,2.5-5.6,3.6-9.1,3.3c-1.5-0.1-2.9-0.6-4.3-1.4c-0.3-0.2-0.6-0.1-0.8,0.2c-0.1,0.3,0,0.5,0.3,0.7c2.4,1.3,4.9,1.8,7.7,1.4
			c2.7-0.4,5-1.6,6.9-3.5c0.1-0.1,0.2-0.2,0.5-0.1c1.6,0.6,3,0.4,4.4-0.6C31.4,23.1,31.7,20.5,30.6,18.7z M28,23.8
			c-0.3,0.1-0.9,0.3-1.6,0.2c-1-0.2-2-1-2.2-2c-0.4-1.5,0.7-3.2,2.3-3.5c1.4-0.3,2.9,0.5,3.3,1.8c0.4,1.1-0.2,2.2-0.3,2.3
			C29,23.4,28.2,23.7,28,23.8z"/>
		<path class="st0" d="M27.4,13c-1.2-3.4-3.4-5.9-6.7-7.4c-0.2-0.1-0.3-0.2-0.3-0.4c0-2.7-2.4-4.8-5-4.3c-2,0.3-3.5,1.9-3.7,3.9
			c-0.2,1.9,0.9,3.8,2.7,4.5s3.9,0.2,5.1-1.4C19.8,7.5,20,7,20.3,6.6c0,0,0.1,0.1,0.2,0.1c2.9,1.4,4.9,3.6,6,6.6
			c0,0.1,0.1,0.3,0.1,0.4c0.1,0.2,0.3,0.3,0.6,0.2c0.2-0.1,0.4-0.3,0.3-0.6C27.5,13.2,27.5,13.1,27.4,13z M17.8,7.5
			c-0.7,0.6-1.9,0.8-2.9,0.4c-1.1-0.5-1.9-1.7-1.8-3c0.1-1.3,1.2-2.4,2.5-2.6c1.3-0.2,2.6,0.5,3.1,1.8c0.1,0.2,0.5,1.2,0,2.3
			C18.6,6.6,18.4,7.1,17.8,7.5z"/>
	</g>
</g>
</svg>
